ISO-10303-21;
HEADER;
/* Generated by software containing ST-Developer
 * from STEP Tools, Inc. (www.steptools.com) 
 */
/* OPTION: using custom renumber hook */

FILE_DESCRIPTION(
/* description */ ('STEP AP242 Edition 2',
'CAx-IF Rec.Pracs.---Representation and Presentation of Product Manufa
cturing Information (PMI)---4.0---2014-10-13',
'CAx-IF Rec.Pracs.---3D Tessellated Geometry---0.4---2014-09-14','2;1',
'CAx-IF Rec.Pracs.---User Defined Attributes---1.5---2016-08-15'),
/* implementation_level */ '2;1');

FILE_NAME(
/* name */ 'PVC_PIPE - Part 1',
/* time_stamp */ '2026-10-08T07:28:47Z',
/* author */ (''),
/* organization */ (''),
/* preprocessor_version */ 'ST-DEVELOPER v20',
/* originating_system */ 'ONSHAPE BY PTC INC, 1.221',
/* authorisation */ '  ');

FILE_SCHEMA (('AP242_MANAGED_MODEL_BASED_3D_ENGINEERING_MIM_LF { 1 0 10303 442 3 1 4 }'));
ENDSEC;

DATA;
#10=SHAPE_REPRESENTATION_RELATIONSHIP('','',#523,#11);
#11=ADVANCED_BREP_SHAPE_REPRESENTATION('',(#521),#889);
#12=TOROIDAL_SURFACE('',#553,0.0508,0.015875);
#13=TOROIDAL_SURFACE('',#555,0.0508,0.0127);
#14=TOROIDAL_SURFACE('',#585,0.0508,0.015875);
#15=TOROIDAL_SURFACE('',#586,0.0508,0.0127);
#16=CIRCLE('',#527,0.022225);
#17=CIRCLE('',#528,0.022225);
#18=CIRCLE('',#531,0.009525);
#19=CIRCLE('',#532,0.009525);
#20=CIRCLE('',#535,0.022225);
#21=CIRCLE('',#536,0.022225);
#22=CIRCLE('',#539,0.009525);
#23=CIRCLE('',#540,0.009525);
#24=CIRCLE('',#542,0.0047625);
#25=CIRCLE('',#543,0.0047625);
#26=CIRCLE('',#545,0.0047625);
#27=CIRCLE('',#546,0.0047625);
#28=CIRCLE('',#548,0.0127);
#29=CIRCLE('',#549,0.0127);
#30=CIRCLE('',#552,0.015875);
#31=CIRCLE('',#554,0.015875);
#32=CIRCLE('',#556,0.0127);
#33=CIRCLE('',#559,0.009525);
#34=CIRCLE('',#560,0.009525);
#35=CIRCLE('',#563,0.022225);
#36=CIRCLE('',#564,0.022225);
#37=CIRCLE('',#567,0.009525);
#38=CIRCLE('',#568,0.009525);
#39=CIRCLE('',#571,0.022225);
#40=CIRCLE('',#572,0.022225);
#41=CIRCLE('',#574,0.0047625);
#42=CIRCLE('',#575,0.0047625);
#43=CIRCLE('',#577,0.0047625);
#44=CIRCLE('',#578,0.0047625);
#45=CIRCLE('',#580,0.0127);
#46=CIRCLE('',#581,0.0127);
#47=CIRCLE('',#584,0.015875);
#48=CYLINDRICAL_SURFACE('',#526,0.022225);
#49=CYLINDRICAL_SURFACE('',#530,0.009525);
#50=CYLINDRICAL_SURFACE('',#534,0.022225);
#51=CYLINDRICAL_SURFACE('',#538,0.009525);
#52=CYLINDRICAL_SURFACE('',#541,0.0047625);
#53=CYLINDRICAL_SURFACE('',#544,0.0047625);
#54=CYLINDRICAL_SURFACE('',#547,0.0127);
#55=CYLINDRICAL_SURFACE('',#558,0.009525);
#56=CYLINDRICAL_SURFACE('',#562,0.022225);
#57=CYLINDRICAL_SURFACE('',#566,0.009525);
#58=CYLINDRICAL_SURFACE('',#570,0.022225);
#59=CYLINDRICAL_SURFACE('',#573,0.0047625);
#60=CYLINDRICAL_SURFACE('',#576,0.0047625);
#61=CYLINDRICAL_SURFACE('',#579,0.0127);
#62=ORIENTED_EDGE('',*,*,#190,.F.);
#63=ORIENTED_EDGE('',*,*,#191,.F.);
#64=ORIENTED_EDGE('',*,*,#192,.T.);
#65=ORIENTED_EDGE('',*,*,#193,.T.);
#66=ORIENTED_EDGE('',*,*,#194,.T.);
#67=ORIENTED_EDGE('',*,*,#195,.F.);
#68=ORIENTED_EDGE('',*,*,#196,.F.);
#69=ORIENTED_EDGE('',*,*,#191,.T.);
#70=ORIENTED_EDGE('',*,*,#197,.F.);
#71=ORIENTED_EDGE('',*,*,#198,.F.);
#72=ORIENTED_EDGE('',*,*,#199,.T.);
#73=ORIENTED_EDGE('',*,*,#195,.T.);
#74=ORIENTED_EDGE('',*,*,#200,.T.);
#75=ORIENTED_EDGE('',*,*,#201,.F.);
#76=ORIENTED_EDGE('',*,*,#202,.F.);
#77=ORIENTED_EDGE('',*,*,#198,.T.);
#78=ORIENTED_EDGE('',*,*,#203,.T.);
#79=ORIENTED_EDGE('',*,*,#204,.F.);
#80=ORIENTED_EDGE('',*,*,#205,.F.);
#81=ORIENTED_EDGE('',*,*,#201,.T.);
#82=ORIENTED_EDGE('',*,*,#206,.T.);
#83=ORIENTED_EDGE('',*,*,#207,.F.);
#84=ORIENTED_EDGE('',*,*,#208,.F.);
#85=ORIENTED_EDGE('',*,*,#204,.T.);
#86=ORIENTED_EDGE('',*,*,#209,.T.);
#87=ORIENTED_EDGE('',*,*,#210,.F.);
#88=ORIENTED_EDGE('',*,*,#211,.F.);
#89=ORIENTED_EDGE('',*,*,#207,.T.);
#90=ORIENTED_EDGE('',*,*,#212,.T.);
#91=ORIENTED_EDGE('',*,*,#193,.F.);
#92=ORIENTED_EDGE('',*,*,#213,.F.);
#93=ORIENTED_EDGE('',*,*,#210,.T.);
#94=ORIENTED_EDGE('',*,*,#214,.T.);
#95=ORIENTED_EDGE('',*,*,#215,.F.);
#96=ORIENTED_EDGE('',*,*,#216,.T.);
#97=ORIENTED_EDGE('',*,*,#217,.F.);
#98=ORIENTED_EDGE('',*,*,#218,.T.);
#99=ORIENTED_EDGE('',*,*,#219,.F.);
#100=ORIENTED_EDGE('',*,*,#216,.F.);
#101=ORIENTED_EDGE('',*,*,#214,.F.);
#102=ORIENTED_EDGE('',*,*,#192,.F.);
#103=ORIENTED_EDGE('',*,*,#196,.T.);
#104=ORIENTED_EDGE('',*,*,#199,.F.);
#105=ORIENTED_EDGE('',*,*,#202,.T.);
#106=ORIENTED_EDGE('',*,*,#205,.T.);
#107=ORIENTED_EDGE('',*,*,#208,.T.);
#108=ORIENTED_EDGE('',*,*,#211,.T.);
#109=ORIENTED_EDGE('',*,*,#213,.T.);
#110=ORIENTED_EDGE('',*,*,#218,.F.);
#111=ORIENTED_EDGE('',*,*,#220,.F.);
#112=ORIENTED_EDGE('',*,*,#217,.T.);
#113=ORIENTED_EDGE('',*,*,#215,.T.);
#114=ORIENTED_EDGE('',*,*,#190,.T.);
#115=ORIENTED_EDGE('',*,*,#212,.F.);
#116=ORIENTED_EDGE('',*,*,#209,.F.);
#117=ORIENTED_EDGE('',*,*,#206,.F.);
#118=ORIENTED_EDGE('',*,*,#203,.F.);
#119=ORIENTED_EDGE('',*,*,#200,.F.);
#120=ORIENTED_EDGE('',*,*,#197,.T.);
#121=ORIENTED_EDGE('',*,*,#194,.F.);
#122=ORIENTED_EDGE('',*,*,#221,.F.);
#123=ORIENTED_EDGE('',*,*,#220,.T.);
#124=ORIENTED_EDGE('',*,*,#222,.F.);
#125=ORIENTED_EDGE('',*,*,#219,.T.);
#126=ORIENTED_EDGE('',*,*,#223,.T.);
#127=ORIENTED_EDGE('',*,*,#224,.F.);
#128=ORIENTED_EDGE('',*,*,#225,.F.);
#129=ORIENTED_EDGE('',*,*,#226,.T.);
#130=ORIENTED_EDGE('',*,*,#227,.F.);
#131=ORIENTED_EDGE('',*,*,#228,.F.);
#132=ORIENTED_EDGE('',*,*,#229,.T.);
#133=ORIENTED_EDGE('',*,*,#224,.T.);
#134=ORIENTED_EDGE('',*,*,#230,.F.);
#135=ORIENTED_EDGE('',*,*,#231,.F.);
#136=ORIENTED_EDGE('',*,*,#232,.T.);
#137=ORIENTED_EDGE('',*,*,#228,.T.);
#138=ORIENTED_EDGE('',*,*,#233,.F.);
#139=ORIENTED_EDGE('',*,*,#234,.F.);
#140=ORIENTED_EDGE('',*,*,#235,.T.);
#141=ORIENTED_EDGE('',*,*,#231,.T.);
#142=ORIENTED_EDGE('',*,*,#236,.F.);
#143=ORIENTED_EDGE('',*,*,#237,.F.);
#144=ORIENTED_EDGE('',*,*,#238,.T.);
#145=ORIENTED_EDGE('',*,*,#234,.T.);
#146=ORIENTED_EDGE('',*,*,#239,.F.);
#147=ORIENTED_EDGE('',*,*,#240,.F.);
#148=ORIENTED_EDGE('',*,*,#241,.T.);
#149=ORIENTED_EDGE('',*,*,#237,.T.);
#150=ORIENTED_EDGE('',*,*,#242,.T.);
#151=ORIENTED_EDGE('',*,*,#243,.F.);
#152=ORIENTED_EDGE('',*,*,#244,.F.);
#153=ORIENTED_EDGE('',*,*,#240,.T.);
#154=ORIENTED_EDGE('',*,*,#245,.F.);
#155=ORIENTED_EDGE('',*,*,#226,.F.);
#156=ORIENTED_EDGE('',*,*,#246,.T.);
#157=ORIENTED_EDGE('',*,*,#243,.T.);
#158=ORIENTED_EDGE('',*,*,#247,.F.);
#159=ORIENTED_EDGE('',*,*,#248,.T.);
#160=ORIENTED_EDGE('',*,*,#249,.F.);
#161=ORIENTED_EDGE('',*,*,#250,.T.);
#162=ORIENTED_EDGE('',*,*,#251,.F.);
#163=ORIENTED_EDGE('',*,*,#252,.T.);
#164=ORIENTED_EDGE('',*,*,#249,.T.);
#165=ORIENTED_EDGE('',*,*,#247,.T.);
#166=ORIENTED_EDGE('',*,*,#225,.T.);
#167=ORIENTED_EDGE('',*,*,#229,.F.);
#168=ORIENTED_EDGE('',*,*,#232,.F.);
#169=ORIENTED_EDGE('',*,*,#235,.F.);
#170=ORIENTED_EDGE('',*,*,#238,.F.);
#171=ORIENTED_EDGE('',*,*,#241,.F.);
#172=ORIENTED_EDGE('',*,*,#244,.T.);
#173=ORIENTED_EDGE('',*,*,#246,.F.);
#174=ORIENTED_EDGE('',*,*,#251,.T.);
#175=ORIENTED_EDGE('',*,*,#253,.F.);
#176=ORIENTED_EDGE('',*,*,#250,.F.);
#177=ORIENTED_EDGE('',*,*,#248,.F.);
#178=ORIENTED_EDGE('',*,*,#223,.F.);
#179=ORIENTED_EDGE('',*,*,#245,.T.);
#180=ORIENTED_EDGE('',*,*,#242,.F.);
#181=ORIENTED_EDGE('',*,*,#239,.T.);
#182=ORIENTED_EDGE('',*,*,#236,.T.);
#183=ORIENTED_EDGE('',*,*,#233,.T.);
#184=ORIENTED_EDGE('',*,*,#230,.T.);
#185=ORIENTED_EDGE('',*,*,#227,.T.);
#186=ORIENTED_EDGE('',*,*,#221,.T.);
#187=ORIENTED_EDGE('',*,*,#253,.T.);
#188=ORIENTED_EDGE('',*,*,#222,.T.);
#189=ORIENTED_EDGE('',*,*,#252,.F.);
#190=EDGE_CURVE('',#254,#255,#302,.T.);
#191=EDGE_CURVE('',#256,#254,#303,.T.);
#192=EDGE_CURVE('',#256,#257,#304,.T.);
#193=EDGE_CURVE('',#257,#255,#305,.T.);
#194=EDGE_CURVE('',#254,#258,#16,.T.);
#195=EDGE_CURVE('',#259,#258,#306,.T.);
#196=EDGE_CURVE('',#256,#259,#17,.T.);
#197=EDGE_CURVE('',#260,#258,#307,.T.);
#198=EDGE_CURVE('',#261,#260,#308,.T.);
#199=EDGE_CURVE('',#261,#259,#309,.T.);
#200=EDGE_CURVE('',#260,#262,#18,.T.);
#201=EDGE_CURVE('',#263,#262,#310,.T.);
#202=EDGE_CURVE('',#261,#263,#19,.T.);
#203=EDGE_CURVE('',#262,#264,#311,.T.);
#204=EDGE_CURVE('',#265,#264,#312,.T.);
#205=EDGE_CURVE('',#263,#265,#313,.T.);
#206=EDGE_CURVE('',#264,#266,#20,.T.);
#207=EDGE_CURVE('',#267,#266,#314,.T.);
#208=EDGE_CURVE('',#265,#267,#21,.T.);
#209=EDGE_CURVE('',#266,#268,#315,.T.);
#210=EDGE_CURVE('',#269,#268,#316,.T.);
#211=EDGE_CURVE('',#267,#269,#317,.T.);
#212=EDGE_CURVE('',#268,#255,#22,.T.);
#213=EDGE_CURVE('',#269,#257,#23,.T.);
#214=EDGE_CURVE('',#270,#270,#24,.T.);
#215=EDGE_CURVE('',#271,#271,#25,.T.);
#216=EDGE_CURVE('',#272,#272,#26,.T.);
#217=EDGE_CURVE('',#273,#273,#27,.T.);
#218=EDGE_CURVE('',#274,#274,#28,.T.);
#219=EDGE_CURVE('',#275,#275,#29,.T.);
#220=EDGE_CURVE('',#276,#276,#30,.T.);
#221=EDGE_CURVE('',#277,#277,#31,.T.);
#222=EDGE_CURVE('',#278,#278,#32,.T.);
#223=EDGE_CURVE('',#279,#280,#318,.T.);
#224=EDGE_CURVE('',#281,#280,#319,.T.);
#225=EDGE_CURVE('',#282,#281,#320,.T.);
#226=EDGE_CURVE('',#282,#279,#321,.T.);
#227=EDGE_CURVE('',#283,#280,#33,.T.);
#228=EDGE_CURVE('',#284,#283,#322,.T.);
#229=EDGE_CURVE('',#284,#281,#34,.T.);
#230=EDGE_CURVE('',#285,#283,#323,.T.);
#231=EDGE_CURVE('',#286,#285,#324,.T.);
#232=EDGE_CURVE('',#286,#284,#325,.T.);
#233=EDGE_CURVE('',#287,#285,#35,.T.);
#234=EDGE_CURVE('',#288,#287,#326,.T.);
#235=EDGE_CURVE('',#288,#286,#36,.T.);
#236=EDGE_CURVE('',#289,#287,#327,.T.);
#237=EDGE_CURVE('',#290,#289,#328,.T.);
#238=EDGE_CURVE('',#290,#288,#329,.T.);
#239=EDGE_CURVE('',#291,#289,#37,.T.);
#240=EDGE_CURVE('',#292,#291,#330,.T.);
#241=EDGE_CURVE('',#292,#290,#38,.T.);
#242=EDGE_CURVE('',#291,#293,#331,.T.);
#243=EDGE_CURVE('',#294,#293,#332,.T.);
#244=EDGE_CURVE('',#292,#294,#333,.T.);
#245=EDGE_CURVE('',#279,#293,#39,.T.);
#246=EDGE_CURVE('',#282,#294,#40,.T.);
#247=EDGE_CURVE('',#295,#295,#41,.T.);
#248=EDGE_CURVE('',#296,#296,#42,.T.);
#249=EDGE_CURVE('',#297,#297,#43,.T.);
#250=EDGE_CURVE('',#298,#298,#44,.T.);
#251=EDGE_CURVE('',#299,#299,#45,.T.);
#252=EDGE_CURVE('',#300,#300,#46,.T.);
#253=EDGE_CURVE('',#301,#301,#47,.T.);
#254=VERTEX_POINT('',#748);
#255=VERTEX_POINT('',#749);
#256=VERTEX_POINT('',#751);
#257=VERTEX_POINT('',#753);
#258=VERTEX_POINT('',#757);
#259=VERTEX_POINT('',#759);
#260=VERTEX_POINT('',#763);
#261=VERTEX_POINT('',#765);
#262=VERTEX_POINT('',#769);
#263=VERTEX_POINT('',#771);
#264=VERTEX_POINT('',#775);
#265=VERTEX_POINT('',#777);
#266=VERTEX_POINT('',#781);
#267=VERTEX_POINT('',#783);
#268=VERTEX_POINT('',#787);
#269=VERTEX_POINT('',#789);
#270=VERTEX_POINT('',#796);
#271=VERTEX_POINT('',#798);
#272=VERTEX_POINT('',#801);
#273=VERTEX_POINT('',#803);
#274=VERTEX_POINT('',#806);
#275=VERTEX_POINT('',#808);
#276=VERTEX_POINT('',#812);
#277=VERTEX_POINT('',#815);
#278=VERTEX_POINT('',#818);
#279=VERTEX_POINT('',#821);
#280=VERTEX_POINT('',#822);
#281=VERTEX_POINT('',#824);
#282=VERTEX_POINT('',#826);
#283=VERTEX_POINT('',#830);
#284=VERTEX_POINT('',#832);
#285=VERTEX_POINT('',#836);
#286=VERTEX_POINT('',#838);
#287=VERTEX_POINT('',#842);
#288=VERTEX_POINT('',#844);
#289=VERTEX_POINT('',#848);
#290=VERTEX_POINT('',#850);
#291=VERTEX_POINT('',#854);
#292=VERTEX_POINT('',#856);
#293=VERTEX_POINT('',#860);
#294=VERTEX_POINT('',#862);
#295=VERTEX_POINT('',#869);
#296=VERTEX_POINT('',#871);
#297=VERTEX_POINT('',#874);
#298=VERTEX_POINT('',#876);
#299=VERTEX_POINT('',#879);
#300=VERTEX_POINT('',#881);
#301=VERTEX_POINT('',#885);
#302=LINE('',#747,#334);
#303=LINE('',#750,#335);
#304=LINE('',#752,#336);
#305=LINE('',#754,#337);
#306=LINE('',#758,#338);
#307=LINE('',#762,#339);
#308=LINE('',#764,#340);
#309=LINE('',#766,#341);
#310=LINE('',#770,#342);
#311=LINE('',#774,#343);
#312=LINE('',#776,#344);
#313=LINE('',#778,#345);
#314=LINE('',#782,#346);
#315=LINE('',#786,#347);
#316=LINE('',#788,#348);
#317=LINE('',#790,#349);
#318=LINE('',#820,#350);
#319=LINE('',#823,#351);
#320=LINE('',#825,#352);
#321=LINE('',#827,#353);
#322=LINE('',#831,#354);
#323=LINE('',#835,#355);
#324=LINE('',#837,#356);
#325=LINE('',#839,#357);
#326=LINE('',#843,#358);
#327=LINE('',#847,#359);
#328=LINE('',#849,#360);
#329=LINE('',#851,#361);
#330=LINE('',#855,#362);
#331=LINE('',#859,#363);
#332=LINE('',#861,#364);
#333=LINE('',#863,#365);
#334=VECTOR('',#591,1.);
#335=VECTOR('',#592,1.);
#336=VECTOR('',#593,1.);
#337=VECTOR('',#594,1.);
#338=VECTOR('',#599,1.);
#339=VECTOR('',#604,1.);
#340=VECTOR('',#605,1.);
#341=VECTOR('',#606,1.);
#342=VECTOR('',#611,1.);
#343=VECTOR('',#616,1.);
#344=VECTOR('',#617,1.);
#345=VECTOR('',#618,1.);
#346=VECTOR('',#623,1.);
#347=VECTOR('',#628,1.);
#348=VECTOR('',#629,1.);
#349=VECTOR('',#630,1.);
#350=VECTOR('',#671,1.);
#351=VECTOR('',#672,1.);
#352=VECTOR('',#673,1.);
#353=VECTOR('',#674,1.);
#354=VECTOR('',#679,1.);
#355=VECTOR('',#684,1.);
#356=VECTOR('',#685,1.);
#357=VECTOR('',#686,1.);
#358=VECTOR('',#691,1.);
#359=VECTOR('',#696,1.);
#360=VECTOR('',#697,1.);
#361=VECTOR('',#698,1.);
#362=VECTOR('',#703,1.);
#363=VECTOR('',#708,1.);
#364=VECTOR('',#709,1.);
#365=VECTOR('',#710,1.);
#366=EDGE_LOOP('',(#62,#63,#64,#65));
#367=EDGE_LOOP('',(#66,#67,#68,#69));
#368=EDGE_LOOP('',(#70,#71,#72,#73));
#369=EDGE_LOOP('',(#74,#75,#76,#77));
#370=EDGE_LOOP('',(#78,#79,#80,#81));
#371=EDGE_LOOP('',(#82,#83,#84,#85));
#372=EDGE_LOOP('',(#86,#87,#88,#89));
#373=EDGE_LOOP('',(#90,#91,#92,#93));
#374=EDGE_LOOP('',(#94));
#375=EDGE_LOOP('',(#95));
#376=EDGE_LOOP('',(#96));
#377=EDGE_LOOP('',(#97));
#378=EDGE_LOOP('',(#98));
#379=EDGE_LOOP('',(#99));
#380=EDGE_LOOP('',(#100));
#381=EDGE_LOOP('',(#101));
#382=EDGE_LOOP('',(#102,#103,#104,#105,#106,#107,#108,#109));
#383=EDGE_LOOP('',(#110));
#384=EDGE_LOOP('',(#111));
#385=EDGE_LOOP('',(#112));
#386=EDGE_LOOP('',(#113));
#387=EDGE_LOOP('',(#114,#115,#116,#117,#118,#119,#120,#121));
#388=EDGE_LOOP('',(#122));
#389=EDGE_LOOP('',(#123));
#390=EDGE_LOOP('',(#124));
#391=EDGE_LOOP('',(#125));
#392=EDGE_LOOP('',(#126,#127,#128,#129));
#393=EDGE_LOOP('',(#130,#131,#132,#133));
#394=EDGE_LOOP('',(#134,#135,#136,#137));
#395=EDGE_LOOP('',(#138,#139,#140,#141));
#396=EDGE_LOOP('',(#142,#143,#144,#145));
#397=EDGE_LOOP('',(#146,#147,#148,#149));
#398=EDGE_LOOP('',(#150,#151,#152,#153));
#399=EDGE_LOOP('',(#154,#155,#156,#157));
#400=EDGE_LOOP('',(#158));
#401=EDGE_LOOP('',(#159));
#402=EDGE_LOOP('',(#160));
#403=EDGE_LOOP('',(#161));
#404=EDGE_LOOP('',(#162));
#405=EDGE_LOOP('',(#163));
#406=EDGE_LOOP('',(#164));
#407=EDGE_LOOP('',(#165));
#408=EDGE_LOOP('',(#166,#167,#168,#169,#170,#171,#172,#173));
#409=EDGE_LOOP('',(#174));
#410=EDGE_LOOP('',(#175));
#411=EDGE_LOOP('',(#176));
#412=EDGE_LOOP('',(#177));
#413=EDGE_LOOP('',(#178,#179,#180,#181,#182,#183,#184,#185));
#414=EDGE_LOOP('',(#186));
#415=EDGE_LOOP('',(#187));
#416=EDGE_LOOP('',(#188));
#417=EDGE_LOOP('',(#189));
#418=FACE_BOUND('',#366,.T.);
#419=FACE_BOUND('',#367,.T.);
#420=FACE_BOUND('',#368,.T.);
#421=FACE_BOUND('',#369,.T.);
#422=FACE_BOUND('',#370,.T.);
#423=FACE_BOUND('',#371,.T.);
#424=FACE_BOUND('',#372,.T.);
#425=FACE_BOUND('',#373,.T.);
#426=FACE_BOUND('',#374,.T.);
#427=FACE_BOUND('',#375,.T.);
#428=FACE_BOUND('',#376,.T.);
#429=FACE_BOUND('',#377,.T.);
#430=FACE_BOUND('',#378,.T.);
#431=FACE_BOUND('',#379,.T.);
#432=FACE_BOUND('',#380,.T.);
#433=FACE_BOUND('',#381,.T.);
#434=FACE_BOUND('',#382,.T.);
#435=FACE_BOUND('',#383,.T.);
#436=FACE_BOUND('',#384,.T.);
#437=FACE_BOUND('',#385,.T.);
#438=FACE_BOUND('',#386,.T.);
#439=FACE_BOUND('',#387,.T.);
#440=FACE_BOUND('',#388,.T.);
#441=FACE_BOUND('',#389,.T.);
#442=FACE_BOUND('',#390,.T.);
#443=FACE_BOUND('',#391,.T.);
#444=FACE_BOUND('',#392,.T.);
#445=FACE_BOUND('',#393,.T.);
#446=FACE_BOUND('',#394,.T.);
#447=FACE_BOUND('',#395,.T.);
#448=FACE_BOUND('',#396,.T.);
#449=FACE_BOUND('',#397,.T.);
#450=FACE_BOUND('',#398,.T.);
#451=FACE_BOUND('',#399,.T.);
#452=FACE_BOUND('',#400,.T.);
#453=FACE_BOUND('',#401,.T.);
#454=FACE_BOUND('',#402,.T.);
#455=FACE_BOUND('',#403,.T.);
#456=FACE_BOUND('',#404,.T.);
#457=FACE_BOUND('',#405,.T.);
#458=FACE_BOUND('',#406,.T.);
#459=FACE_BOUND('',#407,.T.);
#460=FACE_BOUND('',#408,.T.);
#461=FACE_BOUND('',#409,.T.);
#462=FACE_BOUND('',#410,.T.);
#463=FACE_BOUND('',#411,.T.);
#464=FACE_BOUND('',#412,.T.);
#465=FACE_BOUND('',#413,.T.);
#466=FACE_BOUND('',#414,.T.);
#467=FACE_BOUND('',#415,.T.);
#468=FACE_BOUND('',#416,.T.);
#469=FACE_BOUND('',#417,.T.);
#470=PLANE('',#525);
#471=PLANE('',#529);
#472=PLANE('',#533);
#473=PLANE('',#537);
#474=PLANE('',#550);
#475=PLANE('',#551);
#476=PLANE('',#557);
#477=PLANE('',#561);
#478=PLANE('',#565);
#479=PLANE('',#569);
#480=PLANE('',#582);
#481=PLANE('',#583);
#482=ADVANCED_FACE('',(#418),#470,.T.);
#483=ADVANCED_FACE('',(#419),#48,.T.);
#484=ADVANCED_FACE('',(#420),#471,.T.);
#485=ADVANCED_FACE('',(#421),#49,.T.);
#486=ADVANCED_FACE('',(#422),#472,.F.);
#487=ADVANCED_FACE('',(#423),#50,.T.);
#488=ADVANCED_FACE('',(#424),#473,.F.);
#489=ADVANCED_FACE('',(#425),#51,.T.);
#490=ADVANCED_FACE('',(#426,#427),#52,.F.);
#491=ADVANCED_FACE('',(#428,#429),#53,.F.);
#492=ADVANCED_FACE('',(#430,#431),#54,.F.);
#493=ADVANCED_FACE('',(#432,#433,#434,#435),#474,.T.);
#494=ADVANCED_FACE('',(#436,#437,#438,#439),#475,.F.);
#495=ADVANCED_FACE('',(#440,#441),#12,.T.);
#496=ADVANCED_FACE('',(#442,#443),#13,.F.);
#497=ADVANCED_FACE('',(#444),#476,.F.);
#498=ADVANCED_FACE('',(#445),#55,.T.);
#499=ADVANCED_FACE('',(#446),#477,.T.);
#500=ADVANCED_FACE('',(#447),#56,.T.);
#501=ADVANCED_FACE('',(#448),#478,.T.);
#502=ADVANCED_FACE('',(#449),#57,.T.);
#503=ADVANCED_FACE('',(#450),#479,.F.);
#504=ADVANCED_FACE('',(#451),#58,.T.);
#505=ADVANCED_FACE('',(#452,#453),#59,.F.);
#506=ADVANCED_FACE('',(#454,#455),#60,.F.);
#507=ADVANCED_FACE('',(#456,#457),#61,.F.);
#508=ADVANCED_FACE('',(#458,#459,#460,#461),#480,.F.);
#509=ADVANCED_FACE('',(#462,#463,#464,#465),#481,.T.);
#510=ADVANCED_FACE('',(#466,#467),#14,.T.);
#511=ADVANCED_FACE('',(#468,#469),#15,.F.);
#512=CLOSED_SHELL('',(#482,#483,#484,#485,#486,#487,#488,#489,#490,#491,
#492,#493,#494,#495,#496,#497,#498,#499,#500,#501,#502,#503,#504,#505,#506,
#507,#508,#509,#510,#511));
#513=STYLED_ITEM('',(#514),#521);
#514=PRESENTATION_STYLE_ASSIGNMENT((#515));
#515=SURFACE_STYLE_USAGE(.BOTH.,#516);
#516=SURFACE_SIDE_STYLE('',(#517));
#517=SURFACE_STYLE_FILL_AREA(#518);
#518=FILL_AREA_STYLE('',(#519));
#519=FILL_AREA_STYLE_COLOUR('',#520);
#520=DRAUGHTING_PRE_DEFINED_COLOUR('white');
#521=MANIFOLD_SOLID_BREP('Part 1',#512);
#522=SHAPE_DEFINITION_REPRESENTATION(#894,#523);
#523=SHAPE_REPRESENTATION('Part 1',(#524),#889);
#524=AXIS2_PLACEMENT_3D('',#745,#587,#588);
#525=AXIS2_PLACEMENT_3D('',#746,#589,#590);
#526=AXIS2_PLACEMENT_3D('',#755,#595,#596);
#527=AXIS2_PLACEMENT_3D('',#756,#597,#598);
#528=AXIS2_PLACEMENT_3D('',#760,#600,#601);
#529=AXIS2_PLACEMENT_3D('',#761,#602,#603);
#530=AXIS2_PLACEMENT_3D('',#767,#607,#608);
#531=AXIS2_PLACEMENT_3D('',#768,#609,#610);
#532=AXIS2_PLACEMENT_3D('',#772,#612,#613);
#533=AXIS2_PLACEMENT_3D('',#773,#614,#615);
#534=AXIS2_PLACEMENT_3D('',#779,#619,#620);
#535=AXIS2_PLACEMENT_3D('',#780,#621,#622);
#536=AXIS2_PLACEMENT_3D('',#784,#624,#625);
#537=AXIS2_PLACEMENT_3D('',#785,#626,#627);
#538=AXIS2_PLACEMENT_3D('',#791,#631,#632);
#539=AXIS2_PLACEMENT_3D('',#792,#633,#634);
#540=AXIS2_PLACEMENT_3D('',#793,#635,#636);
#541=AXIS2_PLACEMENT_3D('',#794,#637,#638);
#542=AXIS2_PLACEMENT_3D('',#795,#639,#640);
#543=AXIS2_PLACEMENT_3D('',#797,#641,#642);
#544=AXIS2_PLACEMENT_3D('',#799,#643,#644);
#545=AXIS2_PLACEMENT_3D('',#800,#645,#646);
#546=AXIS2_PLACEMENT_3D('',#802,#647,#648);
#547=AXIS2_PLACEMENT_3D('',#804,#649,#650);
#548=AXIS2_PLACEMENT_3D('',#805,#651,#652);
#549=AXIS2_PLACEMENT_3D('',#807,#653,#654);
#550=AXIS2_PLACEMENT_3D('',#809,#655,#656);
#551=AXIS2_PLACEMENT_3D('',#810,#657,#658);
#552=AXIS2_PLACEMENT_3D('',#811,#659,#660);
#553=AXIS2_PLACEMENT_3D('',#813,#661,#662);
#554=AXIS2_PLACEMENT_3D('',#814,#663,#664);
#555=AXIS2_PLACEMENT_3D('',#816,#665,#666);
#556=AXIS2_PLACEMENT_3D('',#817,#667,#668);
#557=AXIS2_PLACEMENT_3D('',#819,#669,#670);
#558=AXIS2_PLACEMENT_3D('',#828,#675,#676);
#559=AXIS2_PLACEMENT_3D('',#829,#677,#678);
#560=AXIS2_PLACEMENT_3D('',#833,#680,#681);
#561=AXIS2_PLACEMENT_3D('',#834,#682,#683);
#562=AXIS2_PLACEMENT_3D('',#840,#687,#688);
#563=AXIS2_PLACEMENT_3D('',#841,#689,#690);
#564=AXIS2_PLACEMENT_3D('',#845,#692,#693);
#565=AXIS2_PLACEMENT_3D('',#846,#694,#695);
#566=AXIS2_PLACEMENT_3D('',#852,#699,#700);
#567=AXIS2_PLACEMENT_3D('',#853,#701,#702);
#568=AXIS2_PLACEMENT_3D('',#857,#704,#705);
#569=AXIS2_PLACEMENT_3D('',#858,#706,#707);
#570=AXIS2_PLACEMENT_3D('',#864,#711,#712);
#571=AXIS2_PLACEMENT_3D('',#865,#713,#714);
#572=AXIS2_PLACEMENT_3D('',#866,#715,#716);
#573=AXIS2_PLACEMENT_3D('',#867,#717,#718);
#574=AXIS2_PLACEMENT_3D('',#868,#719,#720);
#575=AXIS2_PLACEMENT_3D('',#870,#721,#722);
#576=AXIS2_PLACEMENT_3D('',#872,#723,#724);
#577=AXIS2_PLACEMENT_3D('',#873,#725,#726);
#578=AXIS2_PLACEMENT_3D('',#875,#727,#728);
#579=AXIS2_PLACEMENT_3D('',#877,#729,#730);
#580=AXIS2_PLACEMENT_3D('',#878,#731,#732);
#581=AXIS2_PLACEMENT_3D('',#880,#733,#734);
#582=AXIS2_PLACEMENT_3D('',#882,#735,#736);
#583=AXIS2_PLACEMENT_3D('',#883,#737,#738);
#584=AXIS2_PLACEMENT_3D('',#884,#739,#740);
#585=AXIS2_PLACEMENT_3D('',#886,#741,#742);
#586=AXIS2_PLACEMENT_3D('',#887,#743,#744);
#587=DIRECTION('',(0.,0.,1.));
#588=DIRECTION('',(1.,0.,0.));
#589=DIRECTION('',(-0.942809041582063,0.,-0.333333333333333));
#590=DIRECTION('',(-0.333333333333333,0.,0.942809041582064));
#591=DIRECTION('',(0.333333333333333,0.,-0.942809041582063));
#592=DIRECTION('',(0.,-1.,0.));
#593=DIRECTION('',(0.333333333333333,0.,-0.942809041582063));
#594=DIRECTION('',(0.,-1.,0.));
#595=DIRECTION('',(0.,-1.,0.));
#596=DIRECTION('',(0.,0.,-1.));
#597=DIRECTION('',(0.,1.,0.));
#598=DIRECTION('',(0.,0.,1.));
#599=DIRECTION('',(0.,-1.,0.));
#600=DIRECTION('',(0.,1.,0.));
#601=DIRECTION('',(0.,0.,1.));
#602=DIRECTION('',(-0.942809041582063,0.,0.333333333333334));
#603=DIRECTION('',(0.333333333333334,0.,0.942809041582063));
#604=DIRECTION('',(-0.333333333333334,0.,-0.942809041582063));
#605=DIRECTION('',(0.,-1.,0.));
#606=DIRECTION('',(-0.333333333333334,0.,-0.942809041582063));
#607=DIRECTION('',(0.,-1.,0.));
#608=DIRECTION('',(0.,0.,-1.));
#609=DIRECTION('',(0.,1.,0.));
#610=DIRECTION('',(0.,0.,1.));
#611=DIRECTION('',(0.,-1.,0.));
#612=DIRECTION('',(0.,1.,0.));
#613=DIRECTION('',(0.,0.,1.));
#614=DIRECTION('',(-0.942809041582063,0.,-0.333333333333334));
#615=DIRECTION('',(-0.333333333333334,0.,0.942809041582063));
#616=DIRECTION('',(0.333333333333334,0.,-0.942809041582063));
#617=DIRECTION('',(0.,-1.,0.));
#618=DIRECTION('',(0.333333333333334,0.,-0.942809041582063));
#619=DIRECTION('',(0.,-1.,0.));
#620=DIRECTION('',(0.,0.,-1.));
#621=DIRECTION('',(0.,1.,0.));
#622=DIRECTION('',(0.,0.,1.));
#623=DIRECTION('',(0.,-1.,0.));
#624=DIRECTION('',(0.,1.,0.));
#625=DIRECTION('',(0.,0.,1.));
#626=DIRECTION('',(-0.942809041582063,0.,0.333333333333333));
#627=DIRECTION('',(0.333333333333333,0.,0.942809041582064));
#628=DIRECTION('',(-0.333333333333333,0.,-0.942809041582063));
#629=DIRECTION('',(0.,-1.,0.));
#630=DIRECTION('',(-0.333333333333333,0.,-0.942809041582063));
#631=DIRECTION('',(0.,-1.,0.));
#632=DIRECTION('',(0.,0.,-1.));
#633=DIRECTION('',(0.,1.,0.));
#634=DIRECTION('',(0.,0.,1.));
#635=DIRECTION('',(0.,1.,0.));
#636=DIRECTION('',(0.,0.,1.));
#637=DIRECTION('',(0.,-1.,0.));
#638=DIRECTION('',(0.,0.,-1.));
#639=DIRECTION('',(0.,1.,0.));
#640=DIRECTION('',(0.,0.,1.));
#641=DIRECTION('',(0.,1.,0.));
#642=DIRECTION('',(0.,0.,1.));
#643=DIRECTION('',(0.,-1.,0.));
#644=DIRECTION('',(0.,0.,-1.));
#645=DIRECTION('',(0.,1.,0.));
#646=DIRECTION('',(0.,0.,1.));
#647=DIRECTION('',(0.,1.,0.));
#648=DIRECTION('',(0.,0.,1.));
#649=DIRECTION('',(0.,-1.,0.));
#650=DIRECTION('',(0.,0.,-1.));
#651=DIRECTION('',(0.,1.,0.));
#652=DIRECTION('',(0.,0.,1.));
#653=DIRECTION('',(0.,1.,0.));
#654=DIRECTION('',(0.,0.,1.));
#655=DIRECTION('',(0.,1.,0.));
#656=DIRECTION('',(0.,0.,1.));
#657=DIRECTION('',(0.,1.,0.));
#658=DIRECTION('',(0.,0.,1.));
#659=DIRECTION('',(-5.50536848824897E-15,-1.,0.));
#660=DIRECTION('',(1.,-5.50536848824897E-15,0.));
#661=DIRECTION('',(0.,0.,-1.));
#662=DIRECTION('',(-1.,0.,0.));
#663=DIRECTION('',(-1.,-6.65135508355694E-15,0.));
#664=DIRECTION('',(6.65135508355694E-15,-1.,0.));
#665=DIRECTION('',(0.,0.,-1.));
#666=DIRECTION('',(-1.,0.,0.));
#667=DIRECTION('',(1.,-1.23259516440783E-32,0.));
#668=DIRECTION('',(1.23259516440783E-32,1.,0.));
#669=DIRECTION('',(0.942809041582063,0.,0.333333333333334));
#670=DIRECTION('',(0.333333333333334,0.,-0.942809041582063));
#671=DIRECTION('',(0.333333333333334,0.,-0.942809041582063));
#672=DIRECTION('',(0.,1.,0.));
#673=DIRECTION('',(0.333333333333334,0.,-0.942809041582063));
#674=DIRECTION('',(0.,1.,0.));
#675=DIRECTION('',(0.,1.,0.));
#676=DIRECTION('',(0.,0.,1.));
#677=DIRECTION('',(0.,1.,0.));
#678=DIRECTION('',(0.,0.,1.));
#679=DIRECTION('',(0.,1.,0.));
#680=DIRECTION('',(0.,1.,0.));
#681=DIRECTION('',(0.,0.,1.));
#682=DIRECTION('',(0.942809041582063,0.,-0.333333333333333));
#683=DIRECTION('',(-0.333333333333333,0.,-0.942809041582064));
#684=DIRECTION('',(-0.333333333333333,0.,-0.942809041582063));
#685=DIRECTION('',(0.,1.,0.));
#686=DIRECTION('',(-0.333333333333333,0.,-0.942809041582063));
#687=DIRECTION('',(0.,1.,0.));
#688=DIRECTION('',(0.,0.,1.));
#689=DIRECTION('',(0.,1.,0.));
#690=DIRECTION('',(0.,0.,1.));
#691=DIRECTION('',(0.,1.,0.));
#692=DIRECTION('',(0.,1.,0.));
#693=DIRECTION('',(0.,0.,1.));
#694=DIRECTION('',(0.942809041582063,0.,0.333333333333333));
#695=DIRECTION('',(0.333333333333333,0.,-0.942809041582064));
#696=DIRECTION('',(0.333333333333333,0.,-0.942809041582063));
#697=DIRECTION('',(0.,1.,0.));
#698=DIRECTION('',(0.333333333333333,0.,-0.942809041582063));
#699=DIRECTION('',(0.,1.,0.));
#700=DIRECTION('',(0.,0.,1.));
#701=DIRECTION('',(0.,1.,0.));
#702=DIRECTION('',(0.,0.,1.));
#703=DIRECTION('',(0.,1.,0.));
#704=DIRECTION('',(0.,1.,0.));
#705=DIRECTION('',(0.,0.,1.));
#706=DIRECTION('',(0.942809041582063,0.,-0.333333333333333));
#707=DIRECTION('',(-0.333333333333334,0.,-0.942809041582064));
#708=DIRECTION('',(-0.333333333333334,0.,-0.942809041582063));
#709=DIRECTION('',(0.,1.,0.));
#710=DIRECTION('',(-0.333333333333334,0.,-0.942809041582063));
#711=DIRECTION('',(0.,1.,0.));
#712=DIRECTION('',(0.,0.,1.));
#713=DIRECTION('',(0.,1.,0.));
#714=DIRECTION('',(0.,0.,1.));
#715=DIRECTION('',(0.,1.,0.));
#716=DIRECTION('',(0.,0.,1.));
#717=DIRECTION('',(0.,1.,0.));
#718=DIRECTION('',(0.,0.,1.));
#719=DIRECTION('',(0.,1.,0.));
#720=DIRECTION('',(0.,0.,1.));
#721=DIRECTION('',(0.,1.,0.));
#722=DIRECTION('',(0.,0.,1.));
#723=DIRECTION('',(0.,1.,0.));
#724=DIRECTION('',(0.,0.,1.));
#725=DIRECTION('',(0.,1.,0.));
#726=DIRECTION('',(0.,0.,1.));
#727=DIRECTION('',(0.,1.,0.));
#728=DIRECTION('',(0.,0.,1.));
#729=DIRECTION('',(0.,1.,0.));
#730=DIRECTION('',(0.,0.,1.));
#731=DIRECTION('',(0.,1.,0.));
#732=DIRECTION('',(0.,0.,1.));
#733=DIRECTION('',(0.,1.,0.));
#734=DIRECTION('',(0.,0.,1.));
#735=DIRECTION('',(0.,1.,0.));
#736=DIRECTION('',(0.,0.,1.));
#737=DIRECTION('',(0.,1.,0.));
#738=DIRECTION('',(0.,0.,1.));
#739=DIRECTION('',(0.,1.,0.));
#740=DIRECTION('',(0.,0.,1.));
#741=DIRECTION('',(0.,0.,-1.));
#742=DIRECTION('',(-1.,0.,0.));
#743=DIRECTION('',(0.,0.,-1.));
#744=DIRECTION('',(-1.,0.,0.));
#745=CARTESIAN_POINT('',(0.,0.,0.));
#746=CARTESIAN_POINT('',(0.0693571801619498,0.1143,0.0245214662082458));
#747=CARTESIAN_POINT('',(0.0693571801619498,0.1016,0.0245214662082458));
#748=CARTESIAN_POINT('',(0.0806460690508387,0.1016,-0.00740833333333333));
#749=CARTESIAN_POINT('',(0.0926197438789308,0.1016,-0.041275));
#750=CARTESIAN_POINT('',(0.0806460690508387,0.1143,-0.00740833333333333));
#751=CARTESIAN_POINT('',(0.0806460690508387,0.1143,-0.00740833333333333));
#752=CARTESIAN_POINT('',(0.0693571801619498,0.1143,0.0245214662082458));
#753=CARTESIAN_POINT('',(0.0926197438789308,0.1143,-0.041275));
#754=CARTESIAN_POINT('',(0.0926197438789308,0.1143,-0.041275));
#755=CARTESIAN_POINT('',(0.1016,0.1143,0.));
#756=CARTESIAN_POINT('',(0.1016,0.1016,0.));
#757=CARTESIAN_POINT('',(0.0806460690508386,0.1016,0.00740833333333333));
#758=CARTESIAN_POINT('',(0.0806460690508386,0.1143,0.00740833333333333));
#759=CARTESIAN_POINT('',(0.0806460690508386,0.1143,0.00740833333333333));
#760=CARTESIAN_POINT('',(0.1016,0.1143,0.));
#761=CARTESIAN_POINT('',(0.0693571801619498,0.1143,-0.0245214662082459));
#762=CARTESIAN_POINT('',(0.0693571801619498,0.1016,-0.0245214662082459));
#763=CARTESIAN_POINT('',(0.0926197438789308,0.1016,0.041275));
#764=CARTESIAN_POINT('',(0.0926197438789308,0.1143,0.041275));
#765=CARTESIAN_POINT('',(0.0926197438789308,0.1143,0.041275));
#766=CARTESIAN_POINT('',(0.0693571801619498,0.1143,-0.0245214662082459));
#767=CARTESIAN_POINT('',(0.1016,0.1143,0.0381));
#768=CARTESIAN_POINT('',(0.1016,0.1016,0.0381));
#769=CARTESIAN_POINT('',(0.110580256121069,0.1016,0.041275));
#770=CARTESIAN_POINT('',(0.110580256121069,0.1143,0.041275));
#771=CARTESIAN_POINT('',(0.110580256121069,0.1143,0.041275));
#772=CARTESIAN_POINT('',(0.1016,0.1143,0.0381));
#773=CARTESIAN_POINT('',(0.111265042060272,0.1143,0.0393381328749126));
#774=CARTESIAN_POINT('',(0.111265042060272,0.1016,0.0393381328749126));
#775=CARTESIAN_POINT('',(0.122553930949161,0.1016,0.00740833333333333));
#776=CARTESIAN_POINT('',(0.122553930949161,0.1143,0.00740833333333333));
#777=CARTESIAN_POINT('',(0.122553930949161,0.1143,0.00740833333333333));
#778=CARTESIAN_POINT('',(0.111265042060272,0.1143,0.0393381328749126));
#779=CARTESIAN_POINT('',(0.1016,0.1143,0.));
#780=CARTESIAN_POINT('',(0.1016,0.1016,0.));
#781=CARTESIAN_POINT('',(0.122553930949161,0.1016,-0.00740833333333333));
#782=CARTESIAN_POINT('',(0.122553930949161,0.1143,-0.00740833333333333));
#783=CARTESIAN_POINT('',(0.122553930949161,0.1143,-0.00740833333333333));
#784=CARTESIAN_POINT('',(0.1016,0.1143,0.));
#785=CARTESIAN_POINT('',(0.111265042060272,0.1143,-0.0393381328749125));
#786=CARTESIAN_POINT('',(0.111265042060272,0.1016,-0.0393381328749125));
#787=CARTESIAN_POINT('',(0.110580256121069,0.1016,-0.041275));
#788=CARTESIAN_POINT('',(0.110580256121069,0.1143,-0.041275));
#789=CARTESIAN_POINT('',(0.110580256121069,0.1143,-0.041275));
#790=CARTESIAN_POINT('',(0.111265042060272,0.1143,-0.0393381328749125));
#791=CARTESIAN_POINT('',(0.1016,0.1143,-0.0381));
#792=CARTESIAN_POINT('',(0.1016,0.1016,-0.0381));
#793=CARTESIAN_POINT('',(0.1016,0.1143,-0.0381));
#794=CARTESIAN_POINT('',(0.1016,0.1143,0.0381));
#795=CARTESIAN_POINT('',(0.1016,0.1143,0.0381));
#796=CARTESIAN_POINT('',(0.1016,0.1143,0.0428625));
#797=CARTESIAN_POINT('',(0.1016,0.1016,0.0381));
#798=CARTESIAN_POINT('',(0.1016,0.1016,0.0428625));
#799=CARTESIAN_POINT('',(0.1016,0.1143,-0.0381));
#800=CARTESIAN_POINT('',(0.1016,0.1143,-0.0381));
#801=CARTESIAN_POINT('',(0.1016,0.1143,-0.0333375));
#802=CARTESIAN_POINT('',(0.1016,0.1016,-0.0381));
#803=CARTESIAN_POINT('',(0.1016,0.1016,-0.0333375));
#804=CARTESIAN_POINT('',(0.1016,0.1143,0.));
#805=CARTESIAN_POINT('',(0.1016,0.1143,0.));
#806=CARTESIAN_POINT('',(0.1016,0.1143,0.0127));
#807=CARTESIAN_POINT('',(0.1016,0.1016,0.));
#808=CARTESIAN_POINT('',(0.1016,0.1016,0.0127));
#809=CARTESIAN_POINT('',(0.,0.1143,0.));
#810=CARTESIAN_POINT('',(0.,0.1016,0.));
#811=CARTESIAN_POINT('',(0.1016,0.1016,0.));
#812=CARTESIAN_POINT('',(0.117475,0.1016,0.));
#813=CARTESIAN_POINT('',(0.0508,0.1016,0.));
#814=CARTESIAN_POINT('',(0.0508,0.0508,0.));
#815=CARTESIAN_POINT('',(0.0508000000000001,0.034925,0.));
#816=CARTESIAN_POINT('',(0.0508,0.1016,0.));
#817=CARTESIAN_POINT('',(0.0508,0.0508,0.));
#818=CARTESIAN_POINT('',(0.0508,0.0635,0.));
#819=CARTESIAN_POINT('',(-0.0209539309491613,-0.0127,-0.00740833333333333));
#820=CARTESIAN_POINT('',(-0.0209539309491613,0.,-0.00740833333333333));
#821=CARTESIAN_POINT('',(-0.0209539309491613,0.,-0.00740833333333333));
#822=CARTESIAN_POINT('',(-0.00898025612106915,0.,-0.041275));
#823=CARTESIAN_POINT('',(-0.00898025612106915,-0.0127,-0.041275));
#824=CARTESIAN_POINT('',(-0.00898025612106915,-0.0127,-0.041275));
#825=CARTESIAN_POINT('',(-0.0209539309491613,-0.0127,-0.00740833333333333));
#826=CARTESIAN_POINT('',(-0.0209539309491613,-0.0127,-0.00740833333333333));
#827=CARTESIAN_POINT('',(-0.0209539309491613,-0.0127,-0.00740833333333333));
#828=CARTESIAN_POINT('',(1.54163233108816E-18,-0.0127,-0.0381));
#829=CARTESIAN_POINT('',(1.54163233108816E-18,0.,-0.0381));
#830=CARTESIAN_POINT('',(0.00898025612106916,0.,-0.041275));
#831=CARTESIAN_POINT('',(0.00898025612106916,-0.0127,-0.041275));
#832=CARTESIAN_POINT('',(0.00898025612106916,-0.0127,-0.041275));
#833=CARTESIAN_POINT('',(1.54163233108816E-18,-0.0127,-0.0381));
#834=CARTESIAN_POINT('',(0.0209539309491613,-0.0127,-0.00740833333333333));
#835=CARTESIAN_POINT('',(0.0209539309491613,0.,-0.00740833333333333));
#836=CARTESIAN_POINT('',(0.0209539309491613,0.,-0.00740833333333333));
#837=CARTESIAN_POINT('',(0.0209539309491613,-0.0127,-0.00740833333333333));
#838=CARTESIAN_POINT('',(0.0209539309491613,-0.0127,-0.00740833333333333));
#839=CARTESIAN_POINT('',(0.0209539309491613,-0.0127,-0.00740833333333333));
#840=CARTESIAN_POINT('',(0.,-0.0127,0.));
#841=CARTESIAN_POINT('',(0.,0.,0.));
#842=CARTESIAN_POINT('',(0.0209539309491613,0.,0.00740833333333333));
#843=CARTESIAN_POINT('',(0.0209539309491613,-0.0127,0.00740833333333333));
#844=CARTESIAN_POINT('',(0.0209539309491613,-0.0127,0.00740833333333333));
#845=CARTESIAN_POINT('',(0.,-0.0127,0.));
#846=CARTESIAN_POINT('',(0.0209539309491613,-0.0127,0.00740833333333333));
#847=CARTESIAN_POINT('',(0.0209539309491613,0.,0.00740833333333333));
#848=CARTESIAN_POINT('',(0.00898025612106917,0.,0.041275));
#849=CARTESIAN_POINT('',(0.00898025612106917,-0.0127,0.041275));
#850=CARTESIAN_POINT('',(0.00898025612106917,-0.0127,0.041275));
#851=CARTESIAN_POINT('',(0.0209539309491613,-0.0127,0.00740833333333333));
#852=CARTESIAN_POINT('',(9.33180860950283E-18,-0.0127,0.0381));
#853=CARTESIAN_POINT('',(9.33180860950283E-18,0.,0.0381));
#854=CARTESIAN_POINT('',(-0.00898025612106916,0.,0.041275));
#855=CARTESIAN_POINT('',(-0.00898025612106916,-0.0127,0.041275));
#856=CARTESIAN_POINT('',(-0.00898025612106916,-0.0127,0.041275));
#857=CARTESIAN_POINT('',(9.33180860950283E-18,-0.0127,0.0381));
#858=CARTESIAN_POINT('',(-0.0209539309491613,-0.0127,0.00740833333333333));
#859=CARTESIAN_POINT('',(-0.0209539309491613,0.,0.00740833333333333));
#860=CARTESIAN_POINT('',(-0.0209539309491613,0.,0.00740833333333333));
#861=CARTESIAN_POINT('',(-0.0209539309491613,-0.0127,0.00740833333333333));
#862=CARTESIAN_POINT('',(-0.0209539309491613,-0.0127,0.00740833333333333));
#863=CARTESIAN_POINT('',(-0.0209539309491613,-0.0127,0.00740833333333333));
#864=CARTESIAN_POINT('',(0.,-0.0127,0.));
#865=CARTESIAN_POINT('',(0.,0.,0.));
#866=CARTESIAN_POINT('',(0.,-0.0127,0.));
#867=CARTESIAN_POINT('',(9.33180860950283E-18,-0.0127,0.0381));
#868=CARTESIAN_POINT('',(9.33180860950283E-18,-0.0127,0.0381));
#869=CARTESIAN_POINT('',(9.33180860950283E-18,-0.0127,0.0428625));
#870=CARTESIAN_POINT('',(9.33180860950283E-18,0.,0.0381));
#871=CARTESIAN_POINT('',(9.33180860950283E-18,0.,0.0428625));
#872=CARTESIAN_POINT('',(1.54163233108816E-18,-0.0127,-0.0381));
#873=CARTESIAN_POINT('',(1.54163233108816E-18,-0.0127,-0.0381));
#874=CARTESIAN_POINT('',(1.54163233108816E-18,-0.0127,-0.0333375));
#875=CARTESIAN_POINT('',(1.54163233108816E-18,0.,-0.0381));
#876=CARTESIAN_POINT('',(1.54163233108816E-18,0.,-0.0333375));
#877=CARTESIAN_POINT('',(0.,-0.0127,0.));
#878=CARTESIAN_POINT('',(0.,-0.0127,0.));
#879=CARTESIAN_POINT('',(0.,-0.0127,0.0127));
#880=CARTESIAN_POINT('',(0.,0.,0.));
#881=CARTESIAN_POINT('',(0.,0.,0.0127));
#882=CARTESIAN_POINT('',(0.,-0.0127,0.));
#883=CARTESIAN_POINT('',(0.,0.,0.));
#884=CARTESIAN_POINT('',(0.,-3.46944695195361E-18,0.));
#885=CARTESIAN_POINT('',(0.,-3.46944695195361E-18,0.015875));
#886=CARTESIAN_POINT('',(0.0508,-3.46944695195361E-18,0.));
#887=CARTESIAN_POINT('',(0.0508,-3.46944695195361E-18,0.));
#888=MECHANICAL_DESIGN_GEOMETRIC_PRESENTATION_REPRESENTATION('',(#513),
#889);
#889=(
GEOMETRIC_REPRESENTATION_CONTEXT(3)
GLOBAL_UNCERTAINTY_ASSIGNED_CONTEXT((#890))
GLOBAL_UNIT_ASSIGNED_CONTEXT((#893,#892,#891))
REPRESENTATION_CONTEXT('Part 1','TOP_LEVEL_ASSEMBLY_PART')
);
#890=UNCERTAINTY_MEASURE_WITH_UNIT(LENGTH_MEASURE(1.E-8),#893,
'DISTANCE_ACCURACY_VALUE','Maximum Tolerance applied to model');
#891=(
NAMED_UNIT(*)
SI_UNIT($,.STERADIAN.)
SOLID_ANGLE_UNIT()
);
#892=(
NAMED_UNIT(*)
PLANE_ANGLE_UNIT()
SI_UNIT($,.RADIAN.)
);
#893=(
LENGTH_UNIT()
NAMED_UNIT(*)
SI_UNIT($,.METRE.)
);
#894=PRODUCT_DEFINITION_SHAPE('','',#895);
#895=PRODUCT_DEFINITION('','',#897,#896);
#896=PRODUCT_DEFINITION_CONTEXT('',#903,'design');
#897=PRODUCT_DEFINITION_FORMATION_WITH_SPECIFIED_SOURCE('','',#899,
 .NOT_KNOWN.);
#898=PRODUCT_RELATED_PRODUCT_CATEGORY('','',(#899));
#899=PRODUCT('Part 1','Part 1','Part 1',(#901));
#900=PRODUCT_CATEGORY('','');
#901=PRODUCT_CONTEXT('',#903,'mechanical');
#902=APPLICATION_PROTOCOL_DEFINITION('international standard',
'ap242_managed_model_based_3d_engineering',2020,#903);
#903=APPLICATION_CONTEXT('managed model based 3d engineering');
ENDSEC;
END-ISO-10303-21;
