ISO-10303-21;
HEADER;
/* Generated by software containing ST-Developer
 * from STEP Tools, Inc. (www.steptools.com) 
 */
/* OPTION: using custom renumber hook */

FILE_DESCRIPTION(
/* description */ ('STEP AP242 Edition 2',
'CAx-IF Rec.Pracs.---Representation and Presentation of Product Manufa
cturing Information (PMI)---4.0---2014-10-13',
'CAx-IF Rec.Pracs.---3D Tessellated Geometry---0.4---2014-09-14','2;1',
'CAx-IF Rec.Pracs.---User Defined Attributes---1.5---2016-08-15'),
/* implementation_level */ '2;1');

FILE_NAME(
/* name */ '6ac745ed3734795bba57edc4',
/* time_stamp */ '2026-10-08T07:27:41Z',
/* author */ (''),
/* organization */ (''),
/* preprocessor_version */ 'ST-DEVELOPER v20',
/* originating_system */ 'ONSHAPE BY PTC INC, 1.221',
/* authorisation */ '  ');

FILE_SCHEMA (('AP242_MANAGED_MODEL_BASED_3D_ENGINEERING_MIM_LF { 1 0 10303 442 3 1 4 }'));
ENDSEC;

DATA;
#10=LINE('',#844,#19);
#11=LINE('',#846,#20);
#12=LINE('',#848,#21);
#13=LINE('',#850,#22);
#14=LINE('',#854,#23);
#15=LINE('',#856,#24);
#16=LINE('',#858,#25);
#17=LINE('',#860,#26);
#18=LINE('',#862,#27);
#19=VECTOR('',#714,1.);
#20=VECTOR('',#715,1.);
#21=VECTOR('',#716,1.);
#22=VECTOR('',#719,1.);
#23=VECTOR('',#722,1.);
#24=VECTOR('',#725,1.);
#25=VECTOR('',#726,1.);
#26=VECTOR('',#729,1.);
#27=VECTOR('',#730,1.);
#28=ELLIPSE('',#588,0.00350322489270591,0.003175);
#29=ELLIPSE('',#590,0.00499939447994528,0.003175);
#30=ELLIPSE('',#594,0.00337265458539854,0.003175);
#31=VERTEX_LOOP('',#241);
#32=VERTEX_LOOP('',#243);
#33=DEGENERATE_TOROIDAL_SURFACE('',#561,2.47270905,2.55120775,.F.);
#34=DEGENERATE_TOROIDAL_SURFACE('',#564,2.47270905,2.54921385,.F.);
#35=CONTEXT_DEPENDENT_SHAPE_REPRESENTATION(#65,#921);
#36=CONTEXT_DEPENDENT_SHAPE_REPRESENTATION(#66,#923);
#37=CONTEXT_DEPENDENT_SHAPE_REPRESENTATION(#67,#924);
#38=CONTEXT_DEPENDENT_SHAPE_REPRESENTATION(#68,#927);
#39=CONTEXT_DEPENDENT_SHAPE_REPRESENTATION(#69,#929);
#40=CONTEXT_DEPENDENT_SHAPE_REPRESENTATION(#70,#930);
#41=CONTEXT_DEPENDENT_SHAPE_REPRESENTATION(#71,#933);
#42=CONTEXT_DEPENDENT_SHAPE_REPRESENTATION(#72,#936);
#43=CONTEXT_DEPENDENT_SHAPE_REPRESENTATION(#73,#937);
#44=CONTEXT_DEPENDENT_SHAPE_REPRESENTATION(#74,#939);
#45=CONTEXT_DEPENDENT_SHAPE_REPRESENTATION(#75,#940);
#46=CONTEXT_DEPENDENT_SHAPE_REPRESENTATION(#76,#942);
#47=CONTEXT_DEPENDENT_SHAPE_REPRESENTATION(#77,#943);
#48=CONTEXT_DEPENDENT_SHAPE_REPRESENTATION(#78,#944);
#49=CONTEXT_DEPENDENT_SHAPE_REPRESENTATION(#79,#946);
#50=NEXT_ASSEMBLY_USAGE_OCCURRENCE('NAUO1','AIR_FRAME_MID-1',
'AIR_FRAME_MID-1',#948,#949,'');
#51=NEXT_ASSEMBLY_USAGE_OCCURRENCE('NAUO2','COUPLER_14-1',
'COUPLER_14-1',#948,#950,'');
#52=NEXT_ASSEMBLY_USAGE_OCCURRENCE('NAUO3','AIR_FRAME_MID-2 <1>',
'AIR_FRAME_MID-2 <1>',#947,#948,'');
#53=NEXT_ASSEMBLY_USAGE_OCCURRENCE('NAUO4','NOSE_CONE-1','NOSE_CONE-1',
#951,#952,'');
#54=NEXT_ASSEMBLY_USAGE_OCCURRENCE('NAUO5','COUPLER_12-1',
'COUPLER_12-1',#951,#953,'');
#55=NEXT_ASSEMBLY_USAGE_OCCURRENCE('NAUO6','NOSE_CONE-2 <1>',
'NOSE_CONE-2 <1>',#947,#951,'');
#56=NEXT_ASSEMBLY_USAGE_OCCURRENCE('NAUO7','AIR_FRAME_LOWER-2',
'AIR_FRAME_LOWER-2',#954,#955,'');
#57=NEXT_ASSEMBLY_USAGE_OCCURRENCE('NAUO8','FIN_FOAM_CORE-1',
'FIN_FOAM_CORE-1',#956,#957,'');
#58=NEXT_ASSEMBLY_USAGE_OCCURRENCE('NAUO9','FIN-1 <1>','FIN-1 <1>',#954,
#956,'');
#59=NEXT_ASSEMBLY_USAGE_OCCURRENCE('NAUO10','FIN_FOAM_CORE-1',
'FIN_FOAM_CORE-1',#958,#957,'');
#60=NEXT_ASSEMBLY_USAGE_OCCURRENCE('NAUO11','FIN-1 <2>','FIN-1 <2>',#954,
#958,'');
#61=NEXT_ASSEMBLY_USAGE_OCCURRENCE('NAUO12','FIN_FOAM_CORE-1',
'FIN_FOAM_CORE-1',#959,#957,'');
#62=NEXT_ASSEMBLY_USAGE_OCCURRENCE('NAUO13','FIN-1 <3>','FIN-1 <3>',#954,
#959,'');
#63=NEXT_ASSEMBLY_USAGE_OCCURRENCE('NAUO14','AIR_FRAME_LOWER-1 <1>',
'AIR_FRAME_LOWER-1 <1>',#947,#954,'');
#64=NEXT_ASSEMBLY_USAGE_OCCURRENCE('NAUO15','AIR_FRAME_UPPER-2',
'AIR_FRAME_UPPER-2',#947,#960,'');
#65=(
REPRESENTATION_RELATIONSHIP(' ',' ',#526,#525)
REPRESENTATION_RELATIONSHIP_WITH_TRANSFORMATION(#80)
SHAPE_REPRESENTATION_RELATIONSHIP()
);
#66=(
REPRESENTATION_RELATIONSHIP(' ',' ',#527,#525)
REPRESENTATION_RELATIONSHIP_WITH_TRANSFORMATION(#81)
SHAPE_REPRESENTATION_RELATIONSHIP()
);
#67=(
REPRESENTATION_RELATIONSHIP(' ',' ',#525,#524)
REPRESENTATION_RELATIONSHIP_WITH_TRANSFORMATION(#82)
SHAPE_REPRESENTATION_RELATIONSHIP()
);
#68=(
REPRESENTATION_RELATIONSHIP(' ',' ',#529,#528)
REPRESENTATION_RELATIONSHIP_WITH_TRANSFORMATION(#83)
SHAPE_REPRESENTATION_RELATIONSHIP()
);
#69=(
REPRESENTATION_RELATIONSHIP(' ',' ',#530,#528)
REPRESENTATION_RELATIONSHIP_WITH_TRANSFORMATION(#84)
SHAPE_REPRESENTATION_RELATIONSHIP()
);
#70=(
REPRESENTATION_RELATIONSHIP(' ',' ',#528,#524)
REPRESENTATION_RELATIONSHIP_WITH_TRANSFORMATION(#85)
SHAPE_REPRESENTATION_RELATIONSHIP()
);
#71=(
REPRESENTATION_RELATIONSHIP(' ',' ',#532,#531)
REPRESENTATION_RELATIONSHIP_WITH_TRANSFORMATION(#86)
SHAPE_REPRESENTATION_RELATIONSHIP()
);
#72=(
REPRESENTATION_RELATIONSHIP(' ',' ',#534,#533)
REPRESENTATION_RELATIONSHIP_WITH_TRANSFORMATION(#87)
SHAPE_REPRESENTATION_RELATIONSHIP()
);
#73=(
REPRESENTATION_RELATIONSHIP(' ',' ',#533,#531)
REPRESENTATION_RELATIONSHIP_WITH_TRANSFORMATION(#88)
SHAPE_REPRESENTATION_RELATIONSHIP()
);
#74=(
REPRESENTATION_RELATIONSHIP(' ',' ',#534,#535)
REPRESENTATION_RELATIONSHIP_WITH_TRANSFORMATION(#89)
SHAPE_REPRESENTATION_RELATIONSHIP()
);
#75=(
REPRESENTATION_RELATIONSHIP(' ',' ',#535,#531)
REPRESENTATION_RELATIONSHIP_WITH_TRANSFORMATION(#90)
SHAPE_REPRESENTATION_RELATIONSHIP()
);
#76=(
REPRESENTATION_RELATIONSHIP(' ',' ',#534,#536)
REPRESENTATION_RELATIONSHIP_WITH_TRANSFORMATION(#91)
SHAPE_REPRESENTATION_RELATIONSHIP()
);
#77=(
REPRESENTATION_RELATIONSHIP(' ',' ',#536,#531)
REPRESENTATION_RELATIONSHIP_WITH_TRANSFORMATION(#92)
SHAPE_REPRESENTATION_RELATIONSHIP()
);
#78=(
REPRESENTATION_RELATIONSHIP(' ',' ',#531,#524)
REPRESENTATION_RELATIONSHIP_WITH_TRANSFORMATION(#93)
SHAPE_REPRESENTATION_RELATIONSHIP()
);
#79=(
REPRESENTATION_RELATIONSHIP(' ',' ',#537,#524)
REPRESENTATION_RELATIONSHIP_WITH_TRANSFORMATION(#94)
SHAPE_REPRESENTATION_RELATIONSHIP()
);
#80=ITEM_DEFINED_TRANSFORMATION(' ',' ',#538,#547);
#81=ITEM_DEFINED_TRANSFORMATION(' ',' ',#538,#556);
#82=ITEM_DEFINED_TRANSFORMATION(' ',' ',#538,#557);
#83=ITEM_DEFINED_TRANSFORMATION(' ',' ',#538,#567);
#84=ITEM_DEFINED_TRANSFORMATION(' ',' ',#538,#576);
#85=ITEM_DEFINED_TRANSFORMATION(' ',' ',#538,#577);
#86=ITEM_DEFINED_TRANSFORMATION(' ',' ',#538,#586);
#87=ITEM_DEFINED_TRANSFORMATION(' ',' ',#538,#596);
#88=ITEM_DEFINED_TRANSFORMATION(' ',' ',#538,#597);
#89=ITEM_DEFINED_TRANSFORMATION(' ',' ',#538,#598);
#90=ITEM_DEFINED_TRANSFORMATION(' ',' ',#538,#599);
#91=ITEM_DEFINED_TRANSFORMATION(' ',' ',#538,#600);
#92=ITEM_DEFINED_TRANSFORMATION(' ',' ',#538,#601);
#93=ITEM_DEFINED_TRANSFORMATION(' ',' ',#538,#602);
#94=ITEM_DEFINED_TRANSFORMATION(' ',' ',#538,#611);
#95=SHAPE_REPRESENTATION_RELATIONSHIP('','',#526,#102);
#96=SHAPE_REPRESENTATION_RELATIONSHIP('','',#527,#103);
#97=SHAPE_REPRESENTATION_RELATIONSHIP('','',#529,#104);
#98=SHAPE_REPRESENTATION_RELATIONSHIP('','',#530,#105);
#99=SHAPE_REPRESENTATION_RELATIONSHIP('','',#532,#106);
#100=SHAPE_REPRESENTATION_RELATIONSHIP('','',#534,#107);
#101=SHAPE_REPRESENTATION_RELATIONSHIP('','',#537,#108);
#102=ADVANCED_BREP_SHAPE_REPRESENTATION('',(#503),#889);
#103=ADVANCED_BREP_SHAPE_REPRESENTATION('',(#504),#890);
#104=ADVANCED_BREP_SHAPE_REPRESENTATION('',(#505),#892);
#105=ADVANCED_BREP_SHAPE_REPRESENTATION('',(#506),#893);
#106=ADVANCED_BREP_SHAPE_REPRESENTATION('',(#507),#895);
#107=ADVANCED_BREP_SHAPE_REPRESENTATION('',(#508),#897);
#108=ADVANCED_BREP_SHAPE_REPRESENTATION('',(#509),#900);
#109=CYLINDRICAL_SURFACE('',#545,0.0784987);
#110=CYLINDRICAL_SURFACE('',#546,0.0765048);
#111=CYLINDRICAL_SURFACE('',#554,0.0761746);
#112=CYLINDRICAL_SURFACE('',#555,0.0733425);
#113=CYLINDRICAL_SURFACE('',#563,0.0784987);
#114=CYLINDRICAL_SURFACE('',#566,0.0765048);
#115=CYLINDRICAL_SURFACE('',#574,0.0761746);
#116=CYLINDRICAL_SURFACE('',#575,0.0733425);
#117=CYLINDRICAL_SURFACE('',#584,0.0784987);
#118=CYLINDRICAL_SURFACE('',#585,0.0765048);
#119=CYLINDRICAL_SURFACE('',#593,0.003175);
#120=CYLINDRICAL_SURFACE('',#595,0.003175);
#121=CYLINDRICAL_SURFACE('',#609,0.07849997);
#122=CYLINDRICAL_SURFACE('',#610,0.0765048);
#123=ORIENTED_EDGE('',*,*,#195,.T.);
#124=ORIENTED_EDGE('',*,*,#196,.F.);
#125=ORIENTED_EDGE('',*,*,#197,.F.);
#126=ORIENTED_EDGE('',*,*,#198,.T.);
#127=ORIENTED_EDGE('',*,*,#195,.F.);
#128=ORIENTED_EDGE('',*,*,#197,.T.);
#129=ORIENTED_EDGE('',*,*,#196,.T.);
#130=ORIENTED_EDGE('',*,*,#198,.F.);
#131=ORIENTED_EDGE('',*,*,#199,.T.);
#132=ORIENTED_EDGE('',*,*,#200,.F.);
#133=ORIENTED_EDGE('',*,*,#201,.F.);
#134=ORIENTED_EDGE('',*,*,#202,.T.);
#135=ORIENTED_EDGE('',*,*,#199,.F.);
#136=ORIENTED_EDGE('',*,*,#201,.T.);
#137=ORIENTED_EDGE('',*,*,#200,.T.);
#138=ORIENTED_EDGE('',*,*,#202,.F.);
#139=ORIENTED_EDGE('',*,*,#203,.F.);
#140=ORIENTED_EDGE('',*,*,#204,.T.);
#141=ORIENTED_EDGE('',*,*,#205,.F.);
#142=ORIENTED_EDGE('',*,*,#205,.T.);
#143=ORIENTED_EDGE('',*,*,#204,.F.);
#144=ORIENTED_EDGE('',*,*,#206,.T.);
#145=ORIENTED_EDGE('',*,*,#206,.F.);
#146=ORIENTED_EDGE('',*,*,#203,.T.);
#147=ORIENTED_EDGE('',*,*,#207,.T.);
#148=ORIENTED_EDGE('',*,*,#208,.F.);
#149=ORIENTED_EDGE('',*,*,#209,.F.);
#150=ORIENTED_EDGE('',*,*,#210,.T.);
#151=ORIENTED_EDGE('',*,*,#207,.F.);
#152=ORIENTED_EDGE('',*,*,#209,.T.);
#153=ORIENTED_EDGE('',*,*,#208,.T.);
#154=ORIENTED_EDGE('',*,*,#210,.F.);
#155=ORIENTED_EDGE('',*,*,#211,.T.);
#156=ORIENTED_EDGE('',*,*,#212,.F.);
#157=ORIENTED_EDGE('',*,*,#213,.F.);
#158=ORIENTED_EDGE('',*,*,#214,.T.);
#159=ORIENTED_EDGE('',*,*,#211,.F.);
#160=ORIENTED_EDGE('',*,*,#213,.T.);
#161=ORIENTED_EDGE('',*,*,#212,.T.);
#162=ORIENTED_EDGE('',*,*,#214,.F.);
#163=ORIENTED_EDGE('',*,*,#215,.T.);
#164=ORIENTED_EDGE('',*,*,#216,.F.);
#165=ORIENTED_EDGE('',*,*,#217,.T.);
#166=ORIENTED_EDGE('',*,*,#218,.T.);
#167=ORIENTED_EDGE('',*,*,#219,.F.);
#168=ORIENTED_EDGE('',*,*,#220,.T.);
#169=ORIENTED_EDGE('',*,*,#221,.T.);
#170=ORIENTED_EDGE('',*,*,#217,.F.);
#171=ORIENTED_EDGE('',*,*,#216,.T.);
#172=ORIENTED_EDGE('',*,*,#222,.T.);
#173=ORIENTED_EDGE('',*,*,#223,.T.);
#174=ORIENTED_EDGE('',*,*,#219,.T.);
#175=ORIENTED_EDGE('',*,*,#224,.T.);
#176=ORIENTED_EDGE('',*,*,#225,.T.);
#177=ORIENTED_EDGE('',*,*,#218,.F.);
#178=ORIENTED_EDGE('',*,*,#221,.F.);
#179=ORIENTED_EDGE('',*,*,#226,.F.);
#180=ORIENTED_EDGE('',*,*,#224,.F.);
#181=ORIENTED_EDGE('',*,*,#220,.F.);
#182=ORIENTED_EDGE('',*,*,#223,.F.);
#183=ORIENTED_EDGE('',*,*,#225,.F.);
#184=ORIENTED_EDGE('',*,*,#226,.T.);
#185=ORIENTED_EDGE('',*,*,#222,.F.);
#186=ORIENTED_EDGE('',*,*,#215,.F.);
#187=ORIENTED_EDGE('',*,*,#227,.T.);
#188=ORIENTED_EDGE('',*,*,#228,.F.);
#189=ORIENTED_EDGE('',*,*,#229,.F.);
#190=ORIENTED_EDGE('',*,*,#230,.T.);
#191=ORIENTED_EDGE('',*,*,#227,.F.);
#192=ORIENTED_EDGE('',*,*,#229,.T.);
#193=ORIENTED_EDGE('',*,*,#228,.T.);
#194=ORIENTED_EDGE('',*,*,#230,.F.);
#195=EDGE_CURVE('',#231,#231,#265,.T.);
#196=EDGE_CURVE('',#232,#232,#266,.T.);
#197=EDGE_CURVE('',#233,#233,#267,.T.);
#198=EDGE_CURVE('',#234,#234,#268,.T.);
#199=EDGE_CURVE('',#235,#235,#269,.T.);
#200=EDGE_CURVE('',#236,#236,#270,.T.);
#201=EDGE_CURVE('',#237,#237,#271,.T.);
#202=EDGE_CURVE('',#238,#238,#272,.T.);
#203=EDGE_CURVE('',#239,#239,#273,.T.);
#204=EDGE_CURVE('',#240,#240,#274,.T.);
#205=EDGE_CURVE('',#242,#242,#275,.T.);
#206=EDGE_CURVE('',#244,#244,#276,.T.);
#207=EDGE_CURVE('',#245,#245,#277,.T.);
#208=EDGE_CURVE('',#246,#246,#278,.T.);
#209=EDGE_CURVE('',#247,#247,#279,.T.);
#210=EDGE_CURVE('',#248,#248,#280,.T.);
#211=EDGE_CURVE('',#249,#249,#281,.T.);
#212=EDGE_CURVE('',#250,#250,#282,.T.);
#213=EDGE_CURVE('',#251,#251,#283,.T.);
#214=EDGE_CURVE('',#252,#252,#284,.T.);
#215=EDGE_CURVE('',#253,#254,#28,.F.);
#216=EDGE_CURVE('',#255,#254,#10,.T.);
#217=EDGE_CURVE('',#255,#256,#11,.T.);
#218=EDGE_CURVE('',#256,#253,#12,.T.);
#219=EDGE_CURVE('',#257,#255,#13,.T.);
#220=EDGE_CURVE('',#257,#258,#29,.F.);
#221=EDGE_CURVE('',#258,#256,#14,.T.);
#222=EDGE_CURVE('',#254,#259,#15,.T.);
#223=EDGE_CURVE('',#259,#257,#16,.T.);
#224=EDGE_CURVE('',#258,#260,#17,.F.);
#225=EDGE_CURVE('',#260,#253,#18,.F.);
#226=EDGE_CURVE('',#260,#259,#30,.T.);
#227=EDGE_CURVE('',#261,#261,#285,.T.);
#228=EDGE_CURVE('',#262,#262,#286,.T.);
#229=EDGE_CURVE('',#263,#263,#287,.T.);
#230=EDGE_CURVE('',#264,#264,#288,.T.);
#231=VERTEX_POINT('',#772);
#232=VERTEX_POINT('',#774);
#233=VERTEX_POINT('',#777);
#234=VERTEX_POINT('',#779);
#235=VERTEX_POINT('',#785);
#236=VERTEX_POINT('',#787);
#237=VERTEX_POINT('',#790);
#238=VERTEX_POINT('',#792);
#239=VERTEX_POINT('',#799);
#240=VERTEX_POINT('',#801);
#241=VERTEX_POINT('',#803);
#242=VERTEX_POINT('',#805);
#243=VERTEX_POINT('',#808);
#244=VERTEX_POINT('',#810);
#245=VERTEX_POINT('',#815);
#246=VERTEX_POINT('',#817);
#247=VERTEX_POINT('',#820);
#248=VERTEX_POINT('',#822);
#249=VERTEX_POINT('',#829);
#250=VERTEX_POINT('',#831);
#251=VERTEX_POINT('',#834);
#252=VERTEX_POINT('',#836);
#253=VERTEX_POINT('',#842);
#254=VERTEX_POINT('',#843);
#255=VERTEX_POINT('',#845);
#256=VERTEX_POINT('',#847);
#257=VERTEX_POINT('',#851);
#258=VERTEX_POINT('',#853);
#259=VERTEX_POINT('',#857);
#260=VERTEX_POINT('',#861);
#261=VERTEX_POINT('',#875);
#262=VERTEX_POINT('',#877);
#263=VERTEX_POINT('',#880);
#264=VERTEX_POINT('',#882);
#265=CIRCLE('',#540,0.0784987);
#266=CIRCLE('',#541,0.0765048);
#267=CIRCLE('',#543,0.0784987);
#268=CIRCLE('',#544,0.0765048);
#269=CIRCLE('',#549,0.0761746);
#270=CIRCLE('',#550,0.0733425);
#271=CIRCLE('',#552,0.0761746);
#272=CIRCLE('',#553,0.0733425);
#273=CIRCLE('',#559,0.0765048);
#274=CIRCLE('',#560,0.0784987);
#275=CIRCLE('',#562,0.0784987);
#276=CIRCLE('',#565,0.0765048);
#277=CIRCLE('',#569,0.0761746);
#278=CIRCLE('',#570,0.0733425);
#279=CIRCLE('',#572,0.0761746);
#280=CIRCLE('',#573,0.0733425);
#281=CIRCLE('',#579,0.0784987);
#282=CIRCLE('',#580,0.0765048);
#283=CIRCLE('',#582,0.0784987);
#284=CIRCLE('',#583,0.0765048);
#285=CIRCLE('',#604,0.07849997);
#286=CIRCLE('',#605,0.0765048);
#287=CIRCLE('',#607,0.07849997);
#288=CIRCLE('',#608,0.0765048);
#289=EDGE_LOOP('',(#123));
#290=EDGE_LOOP('',(#124));
#291=EDGE_LOOP('',(#125));
#292=EDGE_LOOP('',(#126));
#293=EDGE_LOOP('',(#127));
#294=EDGE_LOOP('',(#128));
#295=EDGE_LOOP('',(#129));
#296=EDGE_LOOP('',(#130));
#297=EDGE_LOOP('',(#131));
#298=EDGE_LOOP('',(#132));
#299=EDGE_LOOP('',(#133));
#300=EDGE_LOOP('',(#134));
#301=EDGE_LOOP('',(#135));
#302=EDGE_LOOP('',(#136));
#303=EDGE_LOOP('',(#137));
#304=EDGE_LOOP('',(#138));
#305=EDGE_LOOP('',(#139));
#306=EDGE_LOOP('',(#140));
#307=EDGE_LOOP('',(#141));
#308=EDGE_LOOP('',(#142));
#309=EDGE_LOOP('',(#143));
#310=EDGE_LOOP('',(#144));
#311=EDGE_LOOP('',(#145));
#312=EDGE_LOOP('',(#146));
#313=EDGE_LOOP('',(#147));
#314=EDGE_LOOP('',(#148));
#315=EDGE_LOOP('',(#149));
#316=EDGE_LOOP('',(#150));
#317=EDGE_LOOP('',(#151));
#318=EDGE_LOOP('',(#152));
#319=EDGE_LOOP('',(#153));
#320=EDGE_LOOP('',(#154));
#321=EDGE_LOOP('',(#155));
#322=EDGE_LOOP('',(#156));
#323=EDGE_LOOP('',(#157));
#324=EDGE_LOOP('',(#158));
#325=EDGE_LOOP('',(#159));
#326=EDGE_LOOP('',(#160));
#327=EDGE_LOOP('',(#161));
#328=EDGE_LOOP('',(#162));
#329=EDGE_LOOP('',(#163,#164,#165,#166));
#330=EDGE_LOOP('',(#167,#168,#169,#170));
#331=EDGE_LOOP('',(#171,#172,#173,#174));
#332=EDGE_LOOP('',(#175,#176,#177,#178));
#333=EDGE_LOOP('',(#179,#180,#181,#182));
#334=EDGE_LOOP('',(#183,#184,#185,#186));
#335=EDGE_LOOP('',(#187));
#336=EDGE_LOOP('',(#188));
#337=EDGE_LOOP('',(#189));
#338=EDGE_LOOP('',(#190));
#339=EDGE_LOOP('',(#191));
#340=EDGE_LOOP('',(#192));
#341=EDGE_LOOP('',(#193));
#342=EDGE_LOOP('',(#194));
#343=FACE_BOUND('',#289,.T.);
#344=FACE_BOUND('',#290,.T.);
#345=FACE_BOUND('',#291,.T.);
#346=FACE_BOUND('',#292,.T.);
#347=FACE_BOUND('',#293,.T.);
#348=FACE_BOUND('',#294,.T.);
#349=FACE_BOUND('',#295,.T.);
#350=FACE_BOUND('',#296,.T.);
#351=FACE_BOUND('',#297,.T.);
#352=FACE_BOUND('',#298,.T.);
#353=FACE_BOUND('',#299,.T.);
#354=FACE_BOUND('',#300,.T.);
#355=FACE_BOUND('',#301,.T.);
#356=FACE_BOUND('',#302,.T.);
#357=FACE_BOUND('',#303,.T.);
#358=FACE_BOUND('',#304,.T.);
#359=FACE_BOUND('',#305,.T.);
#360=FACE_BOUND('',#306,.T.);
#361=FACE_BOUND('',#31,.T.);
#362=FACE_BOUND('',#307,.T.);
#363=FACE_BOUND('',#308,.T.);
#364=FACE_BOUND('',#309,.T.);
#365=FACE_BOUND('',#32,.T.);
#366=FACE_BOUND('',#310,.T.);
#367=FACE_BOUND('',#311,.T.);
#368=FACE_BOUND('',#312,.T.);
#369=FACE_BOUND('',#313,.T.);
#370=FACE_BOUND('',#314,.T.);
#371=FACE_BOUND('',#315,.T.);
#372=FACE_BOUND('',#316,.T.);
#373=FACE_BOUND('',#317,.T.);
#374=FACE_BOUND('',#318,.T.);
#375=FACE_BOUND('',#319,.T.);
#376=FACE_BOUND('',#320,.T.);
#377=FACE_BOUND('',#321,.T.);
#378=FACE_BOUND('',#322,.T.);
#379=FACE_BOUND('',#323,.T.);
#380=FACE_BOUND('',#324,.T.);
#381=FACE_BOUND('',#325,.T.);
#382=FACE_BOUND('',#326,.T.);
#383=FACE_BOUND('',#327,.T.);
#384=FACE_BOUND('',#328,.T.);
#385=FACE_BOUND('',#329,.T.);
#386=FACE_BOUND('',#330,.T.);
#387=FACE_BOUND('',#331,.T.);
#388=FACE_BOUND('',#332,.T.);
#389=FACE_BOUND('',#333,.T.);
#390=FACE_BOUND('',#334,.T.);
#391=FACE_BOUND('',#335,.T.);
#392=FACE_BOUND('',#336,.T.);
#393=FACE_BOUND('',#337,.T.);
#394=FACE_BOUND('',#338,.T.);
#395=FACE_BOUND('',#339,.T.);
#396=FACE_BOUND('',#340,.T.);
#397=FACE_BOUND('',#341,.T.);
#398=FACE_BOUND('',#342,.T.);
#399=PLANE('',#539);
#400=PLANE('',#542);
#401=PLANE('',#548);
#402=PLANE('',#551);
#403=PLANE('',#558);
#404=PLANE('',#568);
#405=PLANE('',#571);
#406=PLANE('',#578);
#407=PLANE('',#581);
#408=PLANE('',#587);
#409=PLANE('',#589);
#410=PLANE('',#591);
#411=PLANE('',#592);
#412=PLANE('',#603);
#413=PLANE('',#606);
#414=ADVANCED_FACE('',(#343,#344),#399,.T.);
#415=ADVANCED_FACE('',(#345,#346),#400,.F.);
#416=ADVANCED_FACE('',(#347,#348),#109,.T.);
#417=ADVANCED_FACE('',(#349,#350),#110,.F.);
#418=ADVANCED_FACE('',(#351,#352),#401,.T.);
#419=ADVANCED_FACE('',(#353,#354),#402,.F.);
#420=ADVANCED_FACE('',(#355,#356),#111,.T.);
#421=ADVANCED_FACE('',(#357,#358),#112,.F.);
#422=ADVANCED_FACE('',(#359,#360),#403,.T.);
#423=ADVANCED_FACE('',(#361,#362),#33,.F.);
#424=ADVANCED_FACE('',(#363,#364),#113,.T.);
#425=ADVANCED_FACE('',(#365,#366),#34,.T.);
#426=ADVANCED_FACE('',(#367,#368),#114,.F.);
#427=ADVANCED_FACE('',(#369,#370),#404,.T.);
#428=ADVANCED_FACE('',(#371,#372),#405,.F.);
#429=ADVANCED_FACE('',(#373,#374),#115,.T.);
#430=ADVANCED_FACE('',(#375,#376),#116,.F.);
#431=ADVANCED_FACE('',(#377,#378),#406,.T.);
#432=ADVANCED_FACE('',(#379,#380),#407,.F.);
#433=ADVANCED_FACE('',(#381,#382),#117,.T.);
#434=ADVANCED_FACE('',(#383,#384),#118,.F.);
#435=ADVANCED_FACE('',(#385),#408,.F.);
#436=ADVANCED_FACE('',(#386),#409,.F.);
#437=ADVANCED_FACE('',(#387),#410,.F.);
#438=ADVANCED_FACE('',(#388),#411,.T.);
#439=ADVANCED_FACE('',(#389),#119,.T.);
#440=ADVANCED_FACE('',(#390),#120,.T.);
#441=ADVANCED_FACE('',(#391,#392),#412,.T.);
#442=ADVANCED_FACE('',(#393,#394),#413,.F.);
#443=ADVANCED_FACE('',(#395,#396),#121,.T.);
#444=ADVANCED_FACE('',(#397,#398),#122,.F.);
#445=CLOSED_SHELL('',(#414,#415,#416,#417));
#446=CLOSED_SHELL('',(#418,#419,#420,#421));
#447=CLOSED_SHELL('',(#422,#423,#424,#425,#426));
#448=CLOSED_SHELL('',(#427,#428,#429,#430));
#449=CLOSED_SHELL('',(#431,#432,#433,#434));
#450=CLOSED_SHELL('',(#435,#436,#437,#438,#439,#440));
#451=CLOSED_SHELL('',(#441,#442,#443,#444));
#452=STYLED_ITEM('',(#459),#503);
#453=STYLED_ITEM('',(#460),#504);
#454=STYLED_ITEM('',(#461),#505);
#455=STYLED_ITEM('',(#462),#506);
#456=STYLED_ITEM('',(#463),#507);
#457=STYLED_ITEM('',(#464),#508);
#458=STYLED_ITEM('',(#465),#509);
#459=PRESENTATION_STYLE_ASSIGNMENT((#466));
#460=PRESENTATION_STYLE_ASSIGNMENT((#467));
#461=PRESENTATION_STYLE_ASSIGNMENT((#468));
#462=PRESENTATION_STYLE_ASSIGNMENT((#469));
#463=PRESENTATION_STYLE_ASSIGNMENT((#470));
#464=PRESENTATION_STYLE_ASSIGNMENT((#471));
#465=PRESENTATION_STYLE_ASSIGNMENT((#472));
#466=SURFACE_STYLE_USAGE(.BOTH.,#473);
#467=SURFACE_STYLE_USAGE(.BOTH.,#474);
#468=SURFACE_STYLE_USAGE(.BOTH.,#475);
#469=SURFACE_STYLE_USAGE(.BOTH.,#476);
#470=SURFACE_STYLE_USAGE(.BOTH.,#477);
#471=SURFACE_STYLE_USAGE(.BOTH.,#478);
#472=SURFACE_STYLE_USAGE(.BOTH.,#479);
#473=SURFACE_SIDE_STYLE('',(#480));
#474=SURFACE_SIDE_STYLE('',(#481));
#475=SURFACE_SIDE_STYLE('',(#482));
#476=SURFACE_SIDE_STYLE('',(#483));
#477=SURFACE_SIDE_STYLE('',(#484));
#478=SURFACE_SIDE_STYLE('',(#485));
#479=SURFACE_SIDE_STYLE('',(#486));
#480=SURFACE_STYLE_FILL_AREA(#487);
#481=SURFACE_STYLE_FILL_AREA(#488);
#482=SURFACE_STYLE_FILL_AREA(#489);
#483=SURFACE_STYLE_FILL_AREA(#490);
#484=SURFACE_STYLE_FILL_AREA(#491);
#485=SURFACE_STYLE_FILL_AREA(#492);
#486=SURFACE_STYLE_FILL_AREA(#493);
#487=FILL_AREA_STYLE('',(#494));
#488=FILL_AREA_STYLE('',(#495));
#489=FILL_AREA_STYLE('',(#496));
#490=FILL_AREA_STYLE('',(#497));
#491=FILL_AREA_STYLE('',(#498));
#492=FILL_AREA_STYLE('',(#499));
#493=FILL_AREA_STYLE('',(#500));
#494=FILL_AREA_STYLE_COLOUR('',#501);
#495=FILL_AREA_STYLE_COLOUR('',#502);
#496=FILL_AREA_STYLE_COLOUR('',#501);
#497=FILL_AREA_STYLE_COLOUR('',#502);
#498=FILL_AREA_STYLE_COLOUR('',#501);
#499=FILL_AREA_STYLE_COLOUR('',#502);
#500=FILL_AREA_STYLE_COLOUR('',#501);
#501=COLOUR_RGB('',0.63921568627451,0.666666666666667,0.674509803921569);
#502=COLOUR_RGB('',0.792156862745098,0.819607843137255,0.933333333333333);
#503=MANIFOLD_SOLID_BREP('AIR_FRAME_MID-1',#445);
#504=MANIFOLD_SOLID_BREP('COUPLER_14-1',#446);
#505=MANIFOLD_SOLID_BREP('NOSE_CONE-1',#447);
#506=MANIFOLD_SOLID_BREP('COUPLER_12-1',#448);
#507=MANIFOLD_SOLID_BREP('AIR_FRAME_LOWER-2',#449);
#508=MANIFOLD_SOLID_BREP('FIN_FOAM_CORE-1',#450);
#509=MANIFOLD_SOLID_BREP('AIR_FRAME_UPPER-2',#451);
#510=SHAPE_DEFINITION_REPRESENTATION(#918,#524);
#511=SHAPE_DEFINITION_REPRESENTATION(#919,#525);
#512=SHAPE_DEFINITION_REPRESENTATION(#920,#526);
#513=SHAPE_DEFINITION_REPRESENTATION(#922,#527);
#514=SHAPE_DEFINITION_REPRESENTATION(#925,#528);
#515=SHAPE_DEFINITION_REPRESENTATION(#926,#529);
#516=SHAPE_DEFINITION_REPRESENTATION(#928,#530);
#517=SHAPE_DEFINITION_REPRESENTATION(#931,#531);
#518=SHAPE_DEFINITION_REPRESENTATION(#932,#532);
#519=SHAPE_DEFINITION_REPRESENTATION(#934,#533);
#520=SHAPE_DEFINITION_REPRESENTATION(#935,#534);
#521=SHAPE_DEFINITION_REPRESENTATION(#938,#535);
#522=SHAPE_DEFINITION_REPRESENTATION(#941,#536);
#523=SHAPE_DEFINITION_REPRESENTATION(#945,#537);
#524=SHAPE_REPRESENTATION('FULL_ROCKET_ASSEMBLY',(#538,#557,#577,#602,#611),
#887);
#525=SHAPE_REPRESENTATION('AIR_FRAME_MID-2 <1>',(#538,#547,#556),#888);
#526=SHAPE_REPRESENTATION('AIR_FRAME_MID-1',(#538),#889);
#527=SHAPE_REPRESENTATION('COUPLER_14-1',(#538),#890);
#528=SHAPE_REPRESENTATION('NOSE_CONE-2 <1>',(#538,#567,#576),#891);
#529=SHAPE_REPRESENTATION('NOSE_CONE-1',(#538),#892);
#530=SHAPE_REPRESENTATION('COUPLER_12-1',(#538),#893);
#531=SHAPE_REPRESENTATION('AIR_FRAME_LOWER-1 <1>',(#538,#586,#597,#599,
#601),#894);
#532=SHAPE_REPRESENTATION('AIR_FRAME_LOWER-2',(#538),#895);
#533=SHAPE_REPRESENTATION('FIN-1 <1>',(#538,#596),#896);
#534=SHAPE_REPRESENTATION('FIN_FOAM_CORE-1',(#538),#897);
#535=SHAPE_REPRESENTATION('FIN-1 <2>',(#538,#598),#898);
#536=SHAPE_REPRESENTATION('FIN-1 <3>',(#538,#600),#899);
#537=SHAPE_REPRESENTATION('AIR_FRAME_UPPER-2',(#538),#900);
#538=AXIS2_PLACEMENT_3D('',#769,#612,#613);
#539=AXIS2_PLACEMENT_3D('',#770,#614,#615);
#540=AXIS2_PLACEMENT_3D('',#771,#616,#617);
#541=AXIS2_PLACEMENT_3D('',#773,#618,#619);
#542=AXIS2_PLACEMENT_3D('',#775,#620,#621);
#543=AXIS2_PLACEMENT_3D('',#776,#622,#623);
#544=AXIS2_PLACEMENT_3D('',#778,#624,#625);
#545=AXIS2_PLACEMENT_3D('',#780,#626,#627);
#546=AXIS2_PLACEMENT_3D('',#781,#628,#629);
#547=AXIS2_PLACEMENT_3D('',#782,#630,#631);
#548=AXIS2_PLACEMENT_3D('',#783,#632,#633);
#549=AXIS2_PLACEMENT_3D('',#784,#634,#635);
#550=AXIS2_PLACEMENT_3D('',#786,#636,#637);
#551=AXIS2_PLACEMENT_3D('',#788,#638,#639);
#552=AXIS2_PLACEMENT_3D('',#789,#640,#641);
#553=AXIS2_PLACEMENT_3D('',#791,#642,#643);
#554=AXIS2_PLACEMENT_3D('',#793,#644,#645);
#555=AXIS2_PLACEMENT_3D('',#794,#646,#647);
#556=AXIS2_PLACEMENT_3D('',#795,#648,#649);
#557=AXIS2_PLACEMENT_3D('',#796,#650,#651);
#558=AXIS2_PLACEMENT_3D('',#797,#652,#653);
#559=AXIS2_PLACEMENT_3D('',#798,#654,#655);
#560=AXIS2_PLACEMENT_3D('',#800,#656,#657);
#561=AXIS2_PLACEMENT_3D('',#802,#658,#659);
#562=AXIS2_PLACEMENT_3D('',#804,#660,#661);
#563=AXIS2_PLACEMENT_3D('',#806,#662,#663);
#564=AXIS2_PLACEMENT_3D('',#807,#664,#665);
#565=AXIS2_PLACEMENT_3D('',#809,#666,#667);
#566=AXIS2_PLACEMENT_3D('',#811,#668,#669);
#567=AXIS2_PLACEMENT_3D('',#812,#670,#671);
#568=AXIS2_PLACEMENT_3D('',#813,#672,#673);
#569=AXIS2_PLACEMENT_3D('',#814,#674,#675);
#570=AXIS2_PLACEMENT_3D('',#816,#676,#677);
#571=AXIS2_PLACEMENT_3D('',#818,#678,#679);
#572=AXIS2_PLACEMENT_3D('',#819,#680,#681);
#573=AXIS2_PLACEMENT_3D('',#821,#682,#683);
#574=AXIS2_PLACEMENT_3D('',#823,#684,#685);
#575=AXIS2_PLACEMENT_3D('',#824,#686,#687);
#576=AXIS2_PLACEMENT_3D('',#825,#688,#689);
#577=AXIS2_PLACEMENT_3D('',#826,#690,#691);
#578=AXIS2_PLACEMENT_3D('',#827,#692,#693);
#579=AXIS2_PLACEMENT_3D('',#828,#694,#695);
#580=AXIS2_PLACEMENT_3D('',#830,#696,#697);
#581=AXIS2_PLACEMENT_3D('',#832,#698,#699);
#582=AXIS2_PLACEMENT_3D('',#833,#700,#701);
#583=AXIS2_PLACEMENT_3D('',#835,#702,#703);
#584=AXIS2_PLACEMENT_3D('',#837,#704,#705);
#585=AXIS2_PLACEMENT_3D('',#838,#706,#707);
#586=AXIS2_PLACEMENT_3D('',#839,#708,#709);
#587=AXIS2_PLACEMENT_3D('',#840,#710,#711);
#588=AXIS2_PLACEMENT_3D('',#841,#712,#713);
#589=AXIS2_PLACEMENT_3D('',#849,#717,#718);
#590=AXIS2_PLACEMENT_3D('',#852,#720,#721);
#591=AXIS2_PLACEMENT_3D('',#855,#723,#724);
#592=AXIS2_PLACEMENT_3D('',#859,#727,#728);
#593=AXIS2_PLACEMENT_3D('',#863,#731,#732);
#594=AXIS2_PLACEMENT_3D('',#864,#733,#734);
#595=AXIS2_PLACEMENT_3D('',#865,#735,#736);
#596=AXIS2_PLACEMENT_3D('',#866,#737,#738);
#597=AXIS2_PLACEMENT_3D('',#867,#739,#740);
#598=AXIS2_PLACEMENT_3D('',#868,#741,#742);
#599=AXIS2_PLACEMENT_3D('',#869,#743,#744);
#600=AXIS2_PLACEMENT_3D('',#870,#745,#746);
#601=AXIS2_PLACEMENT_3D('',#871,#747,#748);
#602=AXIS2_PLACEMENT_3D('',#872,#749,#750);
#603=AXIS2_PLACEMENT_3D('',#873,#751,#752);
#604=AXIS2_PLACEMENT_3D('',#874,#753,#754);
#605=AXIS2_PLACEMENT_3D('',#876,#755,#756);
#606=AXIS2_PLACEMENT_3D('',#878,#757,#758);
#607=AXIS2_PLACEMENT_3D('',#879,#759,#760);
#608=AXIS2_PLACEMENT_3D('',#881,#761,#762);
#609=AXIS2_PLACEMENT_3D('',#883,#763,#764);
#610=AXIS2_PLACEMENT_3D('',#884,#765,#766);
#611=AXIS2_PLACEMENT_3D('',#885,#767,#768);
#612=DIRECTION('',(0.,0.,1.));
#613=DIRECTION('',(1.,0.,0.));
#614=DIRECTION('',(0.,1.,0.));
#615=DIRECTION('',(0.,0.,1.));
#616=DIRECTION('',(0.,1.,0.));
#617=DIRECTION('',(0.,0.,1.));
#618=DIRECTION('',(0.,1.,0.));
#619=DIRECTION('',(0.,0.,1.));
#620=DIRECTION('',(0.,1.,0.));
#621=DIRECTION('',(0.,0.,1.));
#622=DIRECTION('',(0.,1.,0.));
#623=DIRECTION('',(0.,0.,1.));
#624=DIRECTION('',(0.,1.,0.));
#625=DIRECTION('',(0.,0.,1.));
#626=DIRECTION('',(0.,-1.,0.));
#627=DIRECTION('',(0.,0.,-1.));
#628=DIRECTION('',(0.,-1.,0.));
#629=DIRECTION('',(0.,0.,-1.));
#630=DIRECTION('',(0.,0.,1.));
#631=DIRECTION('',(1.,0.,0.));
#632=DIRECTION('',(0.,1.,0.));
#633=DIRECTION('',(0.,0.,1.));
#634=DIRECTION('',(0.,1.,0.));
#635=DIRECTION('',(0.,0.,1.));
#636=DIRECTION('',(0.,1.,0.));
#637=DIRECTION('',(0.,0.,1.));
#638=DIRECTION('',(0.,1.,0.));
#639=DIRECTION('',(0.,0.,1.));
#640=DIRECTION('',(0.,1.,0.));
#641=DIRECTION('',(0.,0.,1.));
#642=DIRECTION('',(0.,1.,0.));
#643=DIRECTION('',(0.,0.,1.));
#644=DIRECTION('',(0.,-1.,0.));
#645=DIRECTION('',(0.,0.,-1.));
#646=DIRECTION('',(0.,-1.,0.));
#647=DIRECTION('',(0.,0.,-1.));
#648=DIRECTION('',(0.,0.,1.));
#649=DIRECTION('',(1.,0.,0.));
#650=DIRECTION('',(0.,0.,1.));
#651=DIRECTION('',(1.,0.,0.));
#652=DIRECTION('',(0.,-1.,0.));
#653=DIRECTION('',(0.,0.,-1.));
#654=DIRECTION('',(0.,-1.,0.));
#655=DIRECTION('',(0.,0.,-1.));
#656=DIRECTION('',(0.,-1.,0.));
#657=DIRECTION('',(0.,0.,-1.));
#658=DIRECTION('',(0.,-1.,0.));
#659=DIRECTION('',(0.,0.,-1.));
#660=DIRECTION('',(0.,-1.,0.));
#661=DIRECTION('',(0.,0.,-1.));
#662=DIRECTION('',(0.,-1.,0.));
#663=DIRECTION('',(0.,0.,-1.));
#664=DIRECTION('',(0.,-1.,0.));
#665=DIRECTION('',(0.,0.,-1.));
#666=DIRECTION('',(0.,-1.,0.));
#667=DIRECTION('',(0.,0.,-1.));
#668=DIRECTION('',(0.,-1.,0.));
#669=DIRECTION('',(0.,0.,-1.));
#670=DIRECTION('',(0.,0.,1.));
#671=DIRECTION('',(1.,0.,0.));
#672=DIRECTION('',(0.,1.,0.));
#673=DIRECTION('',(0.,0.,1.));
#674=DIRECTION('',(0.,1.,0.));
#675=DIRECTION('',(0.,0.,1.));
#676=DIRECTION('',(0.,1.,0.));
#677=DIRECTION('',(0.,0.,1.));
#678=DIRECTION('',(0.,1.,0.));
#679=DIRECTION('',(0.,0.,1.));
#680=DIRECTION('',(0.,1.,0.));
#681=DIRECTION('',(0.,0.,1.));
#682=DIRECTION('',(0.,1.,0.));
#683=DIRECTION('',(0.,0.,1.));
#684=DIRECTION('',(0.,-1.,0.));
#685=DIRECTION('',(0.,0.,-1.));
#686=DIRECTION('',(0.,-1.,0.));
#687=DIRECTION('',(0.,0.,-1.));
#688=DIRECTION('',(0.,0.,1.));
#689=DIRECTION('',(1.,0.,0.));
#690=DIRECTION('',(0.,0.,1.));
#691=DIRECTION('',(1.,0.,0.));
#692=DIRECTION('',(0.,1.,0.));
#693=DIRECTION('',(0.,0.,1.));
#694=DIRECTION('',(0.,1.,0.));
#695=DIRECTION('',(0.,0.,1.));
#696=DIRECTION('',(0.,1.,0.));
#697=DIRECTION('',(0.,0.,1.));
#698=DIRECTION('',(0.,1.,0.));
#699=DIRECTION('',(0.,0.,1.));
#700=DIRECTION('',(0.,1.,0.));
#701=DIRECTION('',(0.,0.,1.));
#702=DIRECTION('',(0.,1.,0.));
#703=DIRECTION('',(0.,0.,1.));
#704=DIRECTION('',(0.,-1.,0.));
#705=DIRECTION('',(0.,0.,-1.));
#706=DIRECTION('',(0.,-1.,0.));
#707=DIRECTION('',(0.,0.,-1.));
#708=DIRECTION('',(0.,0.,1.));
#709=DIRECTION('',(1.,0.,0.));
#710=DIRECTION('',(0.422618261740697,0.906307787036651,0.));
#711=DIRECTION('',(-0.906307787036651,0.422618261740697,0.));
#712=DIRECTION('',(0.422618261740697,0.906307787036651,0.));
#713=DIRECTION('',(0.906307787036651,-0.422618261740697,0.));
#714=DIRECTION('',(0.906307787036651,-0.422618261740697,0.));
#715=DIRECTION('',(0.,0.,-1.));
#716=DIRECTION('',(0.906307787036651,-0.422618261740697,0.));
#717=DIRECTION('',(1.,0.,0.));
#718=DIRECTION('',(0.,0.,-1.));
#719=DIRECTION('',(0.,-1.,0.));
#720=DIRECTION('',(1.,0.,0.));
#721=DIRECTION('',(0.,-1.,0.));
#722=DIRECTION('',(0.,-1.,0.));
#723=DIRECTION('',(0.,0.,-1.));
#724=DIRECTION('',(-1.,0.,0.));
#725=DIRECTION('',(-1.82123199577617E-16,1.,0.));
#726=DIRECTION('',(-0.635076910361102,0.772448909589622,0.));
#727=DIRECTION('',(0.,0.,-1.));
#728=DIRECTION('',(-1.,0.,0.));
#729=DIRECTION('',(-0.635076910361102,0.772448909589622,0.));
#730=DIRECTION('',(-1.82123199577617E-16,1.,0.));
#731=DIRECTION('',(0.635076910361102,-0.772448909589622,0.));
#732=DIRECTION('',(0.772448909589622,0.635076910361102,0.));
#733=DIRECTION('',(0.337306307686632,-0.941394951545212,0.));
#734=DIRECTION('',(0.941394951545212,0.337306307686632,0.));
#735=DIRECTION('',(1.82123199577617E-16,-1.,0.));
#736=DIRECTION('',(1.,1.82123199577617E-16,0.));
#737=DIRECTION('',(-0.499999999999992,-3.69778549322349E-32,-0.866025403784443));
#738=DIRECTION('',(-0.866025403784443,2.22044604925032E-16,0.499999999999992));
#739=DIRECTION('',(0.,0.,1.));
#740=DIRECTION('',(1.,0.,0.));
#741=DIRECTION('',(-0.500000000000001,5.30015920695367E-31,0.866025403784438));
#742=DIRECTION('',(0.866025403784438,2.22044604925032E-16,0.500000000000001));
#743=DIRECTION('',(0.,0.,1.));
#744=DIRECTION('',(1.,0.,0.));
#745=DIRECTION('',(1.,0.,0.));
#746=DIRECTION('',(0.,2.22044604925032E-16,-1.));
#747=DIRECTION('',(0.,0.,1.));
#748=DIRECTION('',(1.,0.,0.));
#749=DIRECTION('',(0.,0.,1.));
#750=DIRECTION('',(1.,0.,0.));
#751=DIRECTION('',(0.,1.,0.));
#752=DIRECTION('',(0.,0.,1.));
#753=DIRECTION('',(0.,1.,0.));
#754=DIRECTION('',(0.,0.,1.));
#755=DIRECTION('',(0.,1.,0.));
#756=DIRECTION('',(0.,0.,1.));
#757=DIRECTION('',(0.,1.,0.));
#758=DIRECTION('',(0.,0.,1.));
#759=DIRECTION('',(0.,1.,0.));
#760=DIRECTION('',(0.,0.,1.));
#761=DIRECTION('',(0.,1.,0.));
#762=DIRECTION('',(0.,0.,1.));
#763=DIRECTION('',(0.,-1.,0.));
#764=DIRECTION('',(0.,0.,-1.));
#765=DIRECTION('',(0.,-1.,0.));
#766=DIRECTION('',(0.,0.,-1.));
#767=DIRECTION('',(0.,0.,1.));
#768=DIRECTION('',(1.,0.,0.));
#769=CARTESIAN_POINT('',(0.,0.,0.));
#770=CARTESIAN_POINT('',(0.,0.0999998,0.));
#771=CARTESIAN_POINT('',(0.,0.0999998,0.));
#772=CARTESIAN_POINT('',(0.,0.0999998,0.0784987));
#773=CARTESIAN_POINT('',(0.,0.0999998,0.));
#774=CARTESIAN_POINT('',(0.,0.0999998,0.0765048));
#775=CARTESIAN_POINT('',(0.,-0.0999998,0.));
#776=CARTESIAN_POINT('',(0.,-0.0999998,0.));
#777=CARTESIAN_POINT('',(0.,-0.0999998,0.0784987));
#778=CARTESIAN_POINT('',(0.,-0.0999998,0.));
#779=CARTESIAN_POINT('',(0.,-0.0999998,0.0765048));
#780=CARTESIAN_POINT('',(0.,0.0999998,0.));
#781=CARTESIAN_POINT('',(0.,0.0999998,0.));
#782=CARTESIAN_POINT('',(0.,-0.532003,0.));
#783=CARTESIAN_POINT('',(0.,0.1778,0.));
#784=CARTESIAN_POINT('',(0.,0.1778,0.));
#785=CARTESIAN_POINT('',(0.,0.1778,0.0761746));
#786=CARTESIAN_POINT('',(-0.000812136481639331,0.1778,0.));
#787=CARTESIAN_POINT('',(-0.000812136481639331,0.1778,0.0733425));
#788=CARTESIAN_POINT('',(0.,-0.1778,0.));
#789=CARTESIAN_POINT('',(0.,-0.1778,0.));
#790=CARTESIAN_POINT('',(0.,-0.1778,0.0761746));
#791=CARTESIAN_POINT('',(-0.000812136481639331,-0.1778,0.));
#792=CARTESIAN_POINT('',(-0.000812136481639331,-0.1778,0.0733425));
#793=CARTESIAN_POINT('',(0.,0.1778,0.));
#794=CARTESIAN_POINT('',(-0.000812136481639331,0.1778,0.));
#795=CARTESIAN_POINT('',(0.,-0.532003,0.));
#796=CARTESIAN_POINT('',(0.,0.,0.));
#797=CARTESIAN_POINT('',(0.0784987,8.5541578920442E-21,0.));
#798=CARTESIAN_POINT('',(0.,8.5541578920442E-21,0.));
#799=CARTESIAN_POINT('',(0.,8.5541578920442E-21,-0.0765048));
#800=CARTESIAN_POINT('',(0.,1.71083157840884E-20,0.));
#801=CARTESIAN_POINT('',(0.,1.71083157840884E-20,-0.0784987));
#802=CARTESIAN_POINT('',(0.,0.2483104,0.));
#803=CARTESIAN_POINT('',(0.,0.8763,0.));
#804=CARTESIAN_POINT('',(0.,0.2483104,0.));
#805=CARTESIAN_POINT('',(0.,0.2483104,-0.0784987));
#806=CARTESIAN_POINT('',(0.,0.,0.));
#807=CARTESIAN_POINT('',(0.,0.2483104,0.));
#808=CARTESIAN_POINT('',(0.,0.86815006239659,0.));
#809=CARTESIAN_POINT('',(0.,0.2483104,0.));
#810=CARTESIAN_POINT('',(0.,0.2483104,-0.0765048));
#811=CARTESIAN_POINT('',(0.,0.,0.));
#812=CARTESIAN_POINT('',(0.,0.4320032,0.));
#813=CARTESIAN_POINT('',(0.,0.1524,0.));
#814=CARTESIAN_POINT('',(0.,0.1524,0.));
#815=CARTESIAN_POINT('',(0.,0.1524,0.0761746));
#816=CARTESIAN_POINT('',(-0.000812136481639331,0.1524,0.));
#817=CARTESIAN_POINT('',(-0.000812136481639331,0.1524,0.0733425));
#818=CARTESIAN_POINT('',(0.,-0.1524,0.));
#819=CARTESIAN_POINT('',(0.,-0.1524,0.));
#820=CARTESIAN_POINT('',(0.,-0.1524,0.0761746));
#821=CARTESIAN_POINT('',(-0.000812136481639331,-0.1524,0.));
#822=CARTESIAN_POINT('',(-0.000812136481639331,-0.1524,0.0733425));
#823=CARTESIAN_POINT('',(0.,0.1524,0.));
#824=CARTESIAN_POINT('',(-0.000812136481639331,0.1524,0.));
#825=CARTESIAN_POINT('',(0.,0.4320032,0.));
#826=CARTESIAN_POINT('',(0.,0.,0.));
#827=CARTESIAN_POINT('',(0.,0.635,0.));
#828=CARTESIAN_POINT('',(0.,0.635,0.));
#829=CARTESIAN_POINT('',(0.,0.635,0.0784987));
#830=CARTESIAN_POINT('',(0.,0.635,0.));
#831=CARTESIAN_POINT('',(0.,0.635,0.0765048));
#832=CARTESIAN_POINT('',(0.,-0.635,0.));
#833=CARTESIAN_POINT('',(0.,-0.635,0.));
#834=CARTESIAN_POINT('',(0.,-0.635,0.0784987));
#835=CARTESIAN_POINT('',(0.,-0.635,0.));
#836=CARTESIAN_POINT('',(0.,-0.635,0.0765048));
#837=CARTESIAN_POINT('',(0.,0.635,0.));
#838=CARTESIAN_POINT('',(0.,0.635,0.));
#839=CARTESIAN_POINT('',(0.,-1.2670028,0.));
#840=CARTESIAN_POINT('',(0.2032,-0.0947537161370951,0.003175));
#841=CARTESIAN_POINT('',(0.200025,-0.093273189322453,-4.33680868994202E-19));
#842=CARTESIAN_POINT('',(0.200025,-0.093273189322453,-0.003175));
#843=CARTESIAN_POINT('',(0.200025,-0.093273189322453,0.003175));
#844=CARTESIAN_POINT('',(0.2032,-0.0947537161370951,0.003175));
#845=CARTESIAN_POINT('',(0.,0.,0.003175));
#846=CARTESIAN_POINT('',(0.,0.,0.003175));
#847=CARTESIAN_POINT('',(0.,0.,-0.003175));
#848=CARTESIAN_POINT('',(0.2032,-0.0947537161370951,-0.003175));
#849=CARTESIAN_POINT('',(0.,0.,0.003175));
#850=CARTESIAN_POINT('',(0.,0.,0.003175));
#851=CARTESIAN_POINT('',(0.,0.299800605520054,0.003175));
#852=CARTESIAN_POINT('',(0.,0.299800605520054,-4.33680868994202E-19));
#853=CARTESIAN_POINT('',(0.,0.299800605520054,-0.003175));
#854=CARTESIAN_POINT('',(0.,0.,-0.003175));
#855=CARTESIAN_POINT('',(0.,0.,0.003175));
#856=CARTESIAN_POINT('',(0.200025,3.64291929955129E-17,0.003175));
#857=CARTESIAN_POINT('',(0.200025,0.0565086661976017,0.003175));
#858=CARTESIAN_POINT('',(0.147071524227434,0.120916384305699,0.003175));
#859=CARTESIAN_POINT('',(0.,0.,-0.003175));
#860=CARTESIAN_POINT('',(0.200747474712053,0.0556299146725083,-0.003175));
#861=CARTESIAN_POINT('',(0.200025,0.0565086661976017,-0.003175));
#862=CARTESIAN_POINT('',(0.200025,-0.0947537161370951,-0.003175));
#863=CARTESIAN_POINT('',(-0.00245252528794705,0.302783630809604,-4.33680868994202E-19));
#864=CARTESIAN_POINT('',(0.200025,0.0565086661976017,-4.33680868994202E-19));
#865=CARTESIAN_POINT('',(0.200025,0.0576462838629049,-4.33680868994202E-19));
#866=CARTESIAN_POINT('',(-0.0679818683640543,-1.78184908386291,0.03924935));
#867=CARTESIAN_POINT('',(0.,0.,0.));
#868=CARTESIAN_POINT('',(0.0679818683640546,-1.78184908386291,0.03924935));
#869=CARTESIAN_POINT('',(0.,0.,0.));
#870=CARTESIAN_POINT('',(0.,-1.78184908386291,-0.0784987));
#871=CARTESIAN_POINT('',(0.,0.,0.));
#872=CARTESIAN_POINT('',(0.,0.,0.));
#873=CARTESIAN_POINT('',(0.,0.4320032,0.));
#874=CARTESIAN_POINT('',(0.,0.4320032,0.));
#875=CARTESIAN_POINT('',(0.,0.4320032,0.07849997));
#876=CARTESIAN_POINT('',(0.,0.4320032,0.));
#877=CARTESIAN_POINT('',(0.,0.4320032,0.0765048));
#878=CARTESIAN_POINT('',(0.,-0.4320032,0.));
#879=CARTESIAN_POINT('',(0.,-0.4320032,0.));
#880=CARTESIAN_POINT('',(0.,-0.4320032,0.07849997));
#881=CARTESIAN_POINT('',(0.,-0.4320032,0.));
#882=CARTESIAN_POINT('',(0.,-0.4320032,0.0765048));
#883=CARTESIAN_POINT('',(0.,0.4320032,0.));
#884=CARTESIAN_POINT('',(0.,0.4320032,0.));
#885=CARTESIAN_POINT('',(0.,0.,0.));
#886=MECHANICAL_DESIGN_GEOMETRIC_PRESENTATION_REPRESENTATION('',(#452,#453,
#454,#455,#456,#457,#458),#887);
#887=(
GEOMETRIC_REPRESENTATION_CONTEXT(3)
GLOBAL_UNCERTAINTY_ASSIGNED_CONTEXT((#901))
GLOBAL_UNIT_ASSIGNED_CONTEXT((#917,#916,#915))
REPRESENTATION_CONTEXT('FULL_ROCKET_ASSEMBLY','TOP_LEVEL_ASSEMBLY_PART')
);
#888=(
GEOMETRIC_REPRESENTATION_CONTEXT(3)
GLOBAL_UNCERTAINTY_ASSIGNED_CONTEXT((#902))
GLOBAL_UNIT_ASSIGNED_CONTEXT((#917,#916,#915))
REPRESENTATION_CONTEXT('AIR_FRAME_MID-2 <1>','COMPONENT_PART')
);
#889=(
GEOMETRIC_REPRESENTATION_CONTEXT(3)
GLOBAL_UNCERTAINTY_ASSIGNED_CONTEXT((#903))
GLOBAL_UNIT_ASSIGNED_CONTEXT((#917,#916,#915))
REPRESENTATION_CONTEXT('AIR_FRAME_MID-1','COMPONENT_PART')
);
#890=(
GEOMETRIC_REPRESENTATION_CONTEXT(3)
GLOBAL_UNCERTAINTY_ASSIGNED_CONTEXT((#904))
GLOBAL_UNIT_ASSIGNED_CONTEXT((#917,#916,#915))
REPRESENTATION_CONTEXT('COUPLER_14-1','COMPONENT_PART')
);
#891=(
GEOMETRIC_REPRESENTATION_CONTEXT(3)
GLOBAL_UNCERTAINTY_ASSIGNED_CONTEXT((#905))
GLOBAL_UNIT_ASSIGNED_CONTEXT((#917,#916,#915))
REPRESENTATION_CONTEXT('NOSE_CONE-2 <1>','COMPONENT_PART')
);
#892=(
GEOMETRIC_REPRESENTATION_CONTEXT(3)
GLOBAL_UNCERTAINTY_ASSIGNED_CONTEXT((#906))
GLOBAL_UNIT_ASSIGNED_CONTEXT((#917,#916,#915))
REPRESENTATION_CONTEXT('NOSE_CONE-1','COMPONENT_PART')
);
#893=(
GEOMETRIC_REPRESENTATION_CONTEXT(3)
GLOBAL_UNCERTAINTY_ASSIGNED_CONTEXT((#907))
GLOBAL_UNIT_ASSIGNED_CONTEXT((#917,#916,#915))
REPRESENTATION_CONTEXT('COUPLER_12-1','COMPONENT_PART')
);
#894=(
GEOMETRIC_REPRESENTATION_CONTEXT(3)
GLOBAL_UNCERTAINTY_ASSIGNED_CONTEXT((#908))
GLOBAL_UNIT_ASSIGNED_CONTEXT((#917,#916,#915))
REPRESENTATION_CONTEXT('AIR_FRAME_LOWER-1 <1>','COMPONENT_PART')
);
#895=(
GEOMETRIC_REPRESENTATION_CONTEXT(3)
GLOBAL_UNCERTAINTY_ASSIGNED_CONTEXT((#909))
GLOBAL_UNIT_ASSIGNED_CONTEXT((#917,#916,#915))
REPRESENTATION_CONTEXT('AIR_FRAME_LOWER-2','COMPONENT_PART')
);
#896=(
GEOMETRIC_REPRESENTATION_CONTEXT(3)
GLOBAL_UNCERTAINTY_ASSIGNED_CONTEXT((#910))
GLOBAL_UNIT_ASSIGNED_CONTEXT((#917,#916,#915))
REPRESENTATION_CONTEXT('FIN-1 <1>','COMPONENT_PART')
);
#897=(
GEOMETRIC_REPRESENTATION_CONTEXT(3)
GLOBAL_UNCERTAINTY_ASSIGNED_CONTEXT((#911))
GLOBAL_UNIT_ASSIGNED_CONTEXT((#917,#916,#915))
REPRESENTATION_CONTEXT('FIN_FOAM_CORE-1','COMPONENT_PART')
);
#898=(
GEOMETRIC_REPRESENTATION_CONTEXT(3)
GLOBAL_UNCERTAINTY_ASSIGNED_CONTEXT((#912))
GLOBAL_UNIT_ASSIGNED_CONTEXT((#917,#916,#915))
REPRESENTATION_CONTEXT('FIN-1 <2>','COMPONENT_PART')
);
#899=(
GEOMETRIC_REPRESENTATION_CONTEXT(3)
GLOBAL_UNCERTAINTY_ASSIGNED_CONTEXT((#913))
GLOBAL_UNIT_ASSIGNED_CONTEXT((#917,#916,#915))
REPRESENTATION_CONTEXT('FIN-1 <3>','COMPONENT_PART')
);
#900=(
GEOMETRIC_REPRESENTATION_CONTEXT(3)
GLOBAL_UNCERTAINTY_ASSIGNED_CONTEXT((#914))
GLOBAL_UNIT_ASSIGNED_CONTEXT((#917,#916,#915))
REPRESENTATION_CONTEXT('AIR_FRAME_UPPER-2','COMPONENT_PART')
);
#901=UNCERTAINTY_MEASURE_WITH_UNIT(LENGTH_MEASURE(1.E-8),#917,
'DISTANCE_ACCURACY_VALUE','Maximum Tolerance applied to model');
#902=UNCERTAINTY_MEASURE_WITH_UNIT(LENGTH_MEASURE(1.E-8),#917,
'DISTANCE_ACCURACY_VALUE','Maximum Tolerance applied to model');
#903=UNCERTAINTY_MEASURE_WITH_UNIT(LENGTH_MEASURE(1.E-8),#917,
'DISTANCE_ACCURACY_VALUE','Maximum Tolerance applied to model');
#904=UNCERTAINTY_MEASURE_WITH_UNIT(LENGTH_MEASURE(1.E-8),#917,
'DISTANCE_ACCURACY_VALUE','Maximum Tolerance applied to model');
#905=UNCERTAINTY_MEASURE_WITH_UNIT(LENGTH_MEASURE(1.E-8),#917,
'DISTANCE_ACCURACY_VALUE','Maximum Tolerance applied to model');
#906=UNCERTAINTY_MEASURE_WITH_UNIT(LENGTH_MEASURE(1.E-8),#917,
'DISTANCE_ACCURACY_VALUE','Maximum Tolerance applied to model');
#907=UNCERTAINTY_MEASURE_WITH_UNIT(LENGTH_MEASURE(1.E-8),#917,
'DISTANCE_ACCURACY_VALUE','Maximum Tolerance applied to model');
#908=UNCERTAINTY_MEASURE_WITH_UNIT(LENGTH_MEASURE(1.E-8),#917,
'DISTANCE_ACCURACY_VALUE','Maximum Tolerance applied to model');
#909=UNCERTAINTY_MEASURE_WITH_UNIT(LENGTH_MEASURE(1.E-8),#917,
'DISTANCE_ACCURACY_VALUE','Maximum Tolerance applied to model');
#910=UNCERTAINTY_MEASURE_WITH_UNIT(LENGTH_MEASURE(1.E-8),#917,
'DISTANCE_ACCURACY_VALUE','Maximum Tolerance applied to model');
#911=UNCERTAINTY_MEASURE_WITH_UNIT(LENGTH_MEASURE(1.E-8),#917,
'DISTANCE_ACCURACY_VALUE','Maximum Tolerance applied to model');
#912=UNCERTAINTY_MEASURE_WITH_UNIT(LENGTH_MEASURE(1.E-8),#917,
'DISTANCE_ACCURACY_VALUE','Maximum Tolerance applied to model');
#913=UNCERTAINTY_MEASURE_WITH_UNIT(LENGTH_MEASURE(1.E-8),#917,
'DISTANCE_ACCURACY_VALUE','Maximum Tolerance applied to model');
#914=UNCERTAINTY_MEASURE_WITH_UNIT(LENGTH_MEASURE(1.E-8),#917,
'DISTANCE_ACCURACY_VALUE','Maximum Tolerance applied to model');
#915=(
NAMED_UNIT(*)
SI_UNIT($,.STERADIAN.)
SOLID_ANGLE_UNIT()
);
#916=(
NAMED_UNIT(*)
PLANE_ANGLE_UNIT()
SI_UNIT($,.RADIAN.)
);
#917=(
LENGTH_UNIT()
NAMED_UNIT(*)
SI_UNIT($,.METRE.)
);
#918=PRODUCT_DEFINITION_SHAPE('','',#947);
#919=PRODUCT_DEFINITION_SHAPE('','',#948);
#920=PRODUCT_DEFINITION_SHAPE('','',#949);
#921=PRODUCT_DEFINITION_SHAPE(' ','NAUO PRDDFN',#50);
#922=PRODUCT_DEFINITION_SHAPE('','',#950);
#923=PRODUCT_DEFINITION_SHAPE(' ','NAUO PRDDFN',#51);
#924=PRODUCT_DEFINITION_SHAPE(' ','NAUO PRDDFN',#52);
#925=PRODUCT_DEFINITION_SHAPE('','',#951);
#926=PRODUCT_DEFINITION_SHAPE('','',#952);
#927=PRODUCT_DEFINITION_SHAPE(' ','NAUO PRDDFN',#53);
#928=PRODUCT_DEFINITION_SHAPE('','',#953);
#929=PRODUCT_DEFINITION_SHAPE(' ','NAUO PRDDFN',#54);
#930=PRODUCT_DEFINITION_SHAPE(' ','NAUO PRDDFN',#55);
#931=PRODUCT_DEFINITION_SHAPE('','',#954);
#932=PRODUCT_DEFINITION_SHAPE('','',#955);
#933=PRODUCT_DEFINITION_SHAPE(' ','NAUO PRDDFN',#56);
#934=PRODUCT_DEFINITION_SHAPE('','',#956);
#935=PRODUCT_DEFINITION_SHAPE('','',#957);
#936=PRODUCT_DEFINITION_SHAPE(' ','NAUO PRDDFN',#57);
#937=PRODUCT_DEFINITION_SHAPE(' ','NAUO PRDDFN',#58);
#938=PRODUCT_DEFINITION_SHAPE('','',#958);
#939=PRODUCT_DEFINITION_SHAPE(' ','NAUO PRDDFN',#59);
#940=PRODUCT_DEFINITION_SHAPE(' ','NAUO PRDDFN',#60);
#941=PRODUCT_DEFINITION_SHAPE('','',#959);
#942=PRODUCT_DEFINITION_SHAPE(' ','NAUO PRDDFN',#61);
#943=PRODUCT_DEFINITION_SHAPE(' ','NAUO PRDDFN',#62);
#944=PRODUCT_DEFINITION_SHAPE(' ','NAUO PRDDFN',#63);
#945=PRODUCT_DEFINITION_SHAPE('','',#960);
#946=PRODUCT_DEFINITION_SHAPE(' ','NAUO PRDDFN',#64);
#947=PRODUCT_DEFINITION('','',#975,#961);
#948=PRODUCT_DEFINITION('','',#976,#962);
#949=PRODUCT_DEFINITION('','',#977,#963);
#950=PRODUCT_DEFINITION('','',#978,#964);
#951=PRODUCT_DEFINITION('','',#979,#965);
#952=PRODUCT_DEFINITION('','',#980,#966);
#953=PRODUCT_DEFINITION('','',#981,#967);
#954=PRODUCT_DEFINITION('','',#982,#968);
#955=PRODUCT_DEFINITION('','',#983,#969);
#956=PRODUCT_DEFINITION('','',#984,#970);
#957=PRODUCT_DEFINITION('','',#985,#971);
#958=PRODUCT_DEFINITION('','',#986,#972);
#959=PRODUCT_DEFINITION('','',#987,#973);
#960=PRODUCT_DEFINITION('','',#988,#974);
#961=PRODUCT_DEFINITION_CONTEXT('',#1046,'design');
#962=PRODUCT_DEFINITION_CONTEXT('',#1046,'design');
#963=PRODUCT_DEFINITION_CONTEXT('',#1046,'design');
#964=PRODUCT_DEFINITION_CONTEXT('',#1046,'design');
#965=PRODUCT_DEFINITION_CONTEXT('',#1046,'design');
#966=PRODUCT_DEFINITION_CONTEXT('',#1046,'design');
#967=PRODUCT_DEFINITION_CONTEXT('',#1046,'design');
#968=PRODUCT_DEFINITION_CONTEXT('',#1046,'design');
#969=PRODUCT_DEFINITION_CONTEXT('',#1046,'design');
#970=PRODUCT_DEFINITION_CONTEXT('',#1046,'design');
#971=PRODUCT_DEFINITION_CONTEXT('',#1046,'design');
#972=PRODUCT_DEFINITION_CONTEXT('',#1046,'design');
#973=PRODUCT_DEFINITION_CONTEXT('',#1046,'design');
#974=PRODUCT_DEFINITION_CONTEXT('',#1046,'design');
#975=PRODUCT_DEFINITION_FORMATION_WITH_SPECIFIED_SOURCE('','',#1003,
 .NOT_KNOWN.);
#976=PRODUCT_DEFINITION_FORMATION_WITH_SPECIFIED_SOURCE('','',#1004,
 .NOT_KNOWN.);
#977=PRODUCT_DEFINITION_FORMATION_WITH_SPECIFIED_SOURCE('','',#1005,
 .NOT_KNOWN.);
#978=PRODUCT_DEFINITION_FORMATION_WITH_SPECIFIED_SOURCE('','',#1006,
 .NOT_KNOWN.);
#979=PRODUCT_DEFINITION_FORMATION_WITH_SPECIFIED_SOURCE('','',#1007,
 .NOT_KNOWN.);
#980=PRODUCT_DEFINITION_FORMATION_WITH_SPECIFIED_SOURCE('','',#1008,
 .NOT_KNOWN.);
#981=PRODUCT_DEFINITION_FORMATION_WITH_SPECIFIED_SOURCE('','',#1009,
 .NOT_KNOWN.);
#982=PRODUCT_DEFINITION_FORMATION_WITH_SPECIFIED_SOURCE('','',#1010,
 .NOT_KNOWN.);
#983=PRODUCT_DEFINITION_FORMATION_WITH_SPECIFIED_SOURCE('','',#1011,
 .NOT_KNOWN.);
#984=PRODUCT_DEFINITION_FORMATION_WITH_SPECIFIED_SOURCE('','',#1012,
 .NOT_KNOWN.);
#985=PRODUCT_DEFINITION_FORMATION_WITH_SPECIFIED_SOURCE('','',#1013,
 .NOT_KNOWN.);
#986=PRODUCT_DEFINITION_FORMATION_WITH_SPECIFIED_SOURCE('','',#1014,
 .NOT_KNOWN.);
#987=PRODUCT_DEFINITION_FORMATION_WITH_SPECIFIED_SOURCE('','',#1015,
 .NOT_KNOWN.);
#988=PRODUCT_DEFINITION_FORMATION_WITH_SPECIFIED_SOURCE('','',#1016,
 .NOT_KNOWN.);
#989=PRODUCT_RELATED_PRODUCT_CATEGORY('','',(#1003));
#990=PRODUCT_RELATED_PRODUCT_CATEGORY('','',(#1004));
#991=PRODUCT_RELATED_PRODUCT_CATEGORY('','',(#1005));
#992=PRODUCT_RELATED_PRODUCT_CATEGORY('','',(#1006));
#993=PRODUCT_RELATED_PRODUCT_CATEGORY('','',(#1007));
#994=PRODUCT_RELATED_PRODUCT_CATEGORY('','',(#1008));
#995=PRODUCT_RELATED_PRODUCT_CATEGORY('','',(#1009));
#996=PRODUCT_RELATED_PRODUCT_CATEGORY('','',(#1010));
#997=PRODUCT_RELATED_PRODUCT_CATEGORY('','',(#1011));
#998=PRODUCT_RELATED_PRODUCT_CATEGORY('','',(#1012));
#999=PRODUCT_RELATED_PRODUCT_CATEGORY('','',(#1013));
#1000=PRODUCT_RELATED_PRODUCT_CATEGORY('','',(#1014));
#1001=PRODUCT_RELATED_PRODUCT_CATEGORY('','',(#1015));
#1002=PRODUCT_RELATED_PRODUCT_CATEGORY('','',(#1016));
#1003=PRODUCT('FULL_ROCKET_ASSEMBLY','FULL_ROCKET_ASSEMBLY',
'FULL_ROCKET_ASSEMBLY',(#1031));
#1004=PRODUCT('AIR_FRAME_MID-2 <1>','AIR_FRAME_MID-2 <1>',
'AIR_FRAME_MID-2 <1>',(#1032));
#1005=PRODUCT('AIR_FRAME_MID-1','AIR_FRAME_MID-1','AIR_FRAME_MID-1',(#1033));
#1006=PRODUCT('COUPLER_14-1','COUPLER_14-1','COUPLER_14-1',(#1034));
#1007=PRODUCT('NOSE_CONE-2 <1>','NOSE_CONE-2 <1>','NOSE_CONE-2 <1>',(#1035));
#1008=PRODUCT('NOSE_CONE-1','NOSE_CONE-1','NOSE_CONE-1',(#1036));
#1009=PRODUCT('COUPLER_12-1','COUPLER_12-1','COUPLER_12-1',(#1037));
#1010=PRODUCT('AIR_FRAME_LOWER-1 <1>','AIR_FRAME_LOWER-1 <1>',
'AIR_FRAME_LOWER-1 <1>',(#1038));
#1011=PRODUCT('AIR_FRAME_LOWER-2','AIR_FRAME_LOWER-2',
'AIR_FRAME_LOWER-2',(#1039));
#1012=PRODUCT('FIN-1 <1>','FIN-1 <1>','FIN-1 <1>',(#1040));
#1013=PRODUCT('FIN_FOAM_CORE-1','FIN_FOAM_CORE-1','FIN_FOAM_CORE-1',(#1041));
#1014=PRODUCT('FIN-1 <2>','FIN-1 <2>','FIN-1 <2>',(#1042));
#1015=PRODUCT('FIN-1 <3>','FIN-1 <3>','FIN-1 <3>',(#1043));
#1016=PRODUCT('AIR_FRAME_UPPER-2','AIR_FRAME_UPPER-2',
'AIR_FRAME_UPPER-2',(#1044));
#1017=PRODUCT_CATEGORY('','');
#1018=PRODUCT_CATEGORY('','');
#1019=PRODUCT_CATEGORY('','');
#1020=PRODUCT_CATEGORY('','');
#1021=PRODUCT_CATEGORY('','');
#1022=PRODUCT_CATEGORY('','');
#1023=PRODUCT_CATEGORY('','');
#1024=PRODUCT_CATEGORY('','');
#1025=PRODUCT_CATEGORY('','');
#1026=PRODUCT_CATEGORY('','');
#1027=PRODUCT_CATEGORY('','');
#1028=PRODUCT_CATEGORY('','');
#1029=PRODUCT_CATEGORY('','');
#1030=PRODUCT_CATEGORY('','');
#1031=PRODUCT_CONTEXT('',#1046,'mechanical');
#1032=PRODUCT_CONTEXT('',#1046,'mechanical');
#1033=PRODUCT_CONTEXT('',#1046,'mechanical');
#1034=PRODUCT_CONTEXT('',#1046,'mechanical');
#1035=PRODUCT_CONTEXT('',#1046,'mechanical');
#1036=PRODUCT_CONTEXT('',#1046,'mechanical');
#1037=PRODUCT_CONTEXT('',#1046,'mechanical');
#1038=PRODUCT_CONTEXT('',#1046,'mechanical');
#1039=PRODUCT_CONTEXT('',#1046,'mechanical');
#1040=PRODUCT_CONTEXT('',#1046,'mechanical');
#1041=PRODUCT_CONTEXT('',#1046,'mechanical');
#1042=PRODUCT_CONTEXT('',#1046,'mechanical');
#1043=PRODUCT_CONTEXT('',#1046,'mechanical');
#1044=PRODUCT_CONTEXT('',#1046,'mechanical');
#1045=APPLICATION_PROTOCOL_DEFINITION('international standard',
'ap242_managed_model_based_3d_engineering',2020,#1046);
#1046=APPLICATION_CONTEXT('managed model based 3d engineering');
ENDSEC;
END-ISO-10303-21;
